<svg width="207" height="280" viewBox="0 0 207 280" fill="none" xmlns="http://www.w3.org/2000/svg">
<rect width="207" height="280" rx="12" fill="#EA4E3D" fill-opacity="0.1"/>
<path d="M23.3424 34.1392C22.6596 34.1392 22.0498 34.0215 21.5128 33.7862C20.9792 33.5509 20.5566 33.2244 20.2451 32.8068C19.9368 32.3859 19.7711 31.8987 19.7479 31.3452H21.309C21.3289 31.6468 21.43 31.9086 21.6123 32.1307C21.7979 32.3494 22.0398 32.5185 22.3381 32.6378C22.6364 32.7571 22.9679 32.8168 23.3324 32.8168C23.7335 32.8168 24.0881 32.7472 24.3964 32.608C24.7079 32.4687 24.9515 32.2749 25.1272 32.0263C25.3028 31.7744 25.3907 31.4844 25.3907 31.1562C25.3907 30.8149 25.3028 30.5149 25.1272 30.2564C24.9548 29.9946 24.7013 29.7891 24.3665 29.6399C24.0351 29.4908 23.6341 29.4162 23.1634 29.4162H22.3033V28.1634H23.1634C23.5412 28.1634 23.8727 28.0954 24.1577 27.9595C24.4461 27.8236 24.6715 27.6347 24.8339 27.3928C24.9963 27.1475 25.0775 26.8608 25.0775 26.5327C25.0775 26.2178 25.0062 25.9444 24.8637 25.7124C24.7245 25.477 24.5256 25.2931 24.2671 25.1605C24.0119 25.0279 23.7103 24.9616 23.3623 24.9616C23.0308 24.9616 22.7209 25.023 22.4326 25.1456C22.1475 25.2649 21.9155 25.4373 21.7366 25.6626C21.5576 25.8847 21.4615 26.1515 21.4482 26.4631H19.9617C19.9783 25.9129 20.1407 25.429 20.4489 25.0114C20.7605 24.5937 21.1715 24.2673 21.6819 24.032C22.1923 23.7966 22.7591 23.679 23.3822 23.679C24.0351 23.679 24.5985 23.8066 25.0725 24.0618C25.5498 24.3137 25.9177 24.6501 26.1762 25.071C26.438 25.492 26.5673 25.9527 26.564 26.4531C26.5673 27.0232 26.4082 27.5071 26.0867 27.9048C25.7685 28.3026 25.3443 28.5694 24.814 28.7053V28.7848C25.4901 28.8875 26.0138 29.156 26.385 29.5902C26.7595 30.0244 26.9451 30.563 26.9418 31.206C26.9451 31.7661 26.7894 32.2682 26.4745 32.7124C26.1629 33.1565 25.737 33.5062 25.1968 33.7614C24.6565 34.0133 24.0384 34.1392 23.3424 34.1392ZM28.0952 36.2024V32.7124H28.7167C28.8758 32.5665 29.01 32.3925 29.1194 32.1903C29.2321 31.9882 29.3265 31.7479 29.4028 31.4695C29.4823 31.1911 29.5486 30.8662 29.6016 30.495C29.6546 30.1205 29.701 29.6929 29.7408 29.2124L29.9795 26.3636H35.1698V32.7124H36.3431V36.2024H34.8914V34H29.5668V36.2024H28.0952ZM30.3076 32.7124H33.7181V27.6364H31.3118L31.1528 29.2124C31.0765 30.0144 30.9804 30.7105 30.8644 31.3004C30.7484 31.8871 30.5628 32.3577 30.3076 32.7124ZM41.0127 34.1541C40.2968 34.1541 39.672 33.9901 39.1384 33.6619C38.6048 33.3338 38.1905 32.8748 37.8955 32.2848C37.6005 31.6948 37.453 31.0054 37.453 30.2166C37.453 29.4245 37.6005 28.7318 37.8955 28.1385C38.1905 27.5452 38.6048 27.0845 39.1384 26.7564C39.672 26.4283 40.2968 26.2642 41.0127 26.2642C41.7286 26.2642 42.3533 26.4283 42.887 26.7564C43.4206 27.0845 43.8349 27.5452 44.1298 28.1385C44.4248 28.7318 44.5723 29.4245 44.5723 30.2166C44.5723 31.0054 44.4248 31.6948 44.1298 32.2848C43.8349 32.8748 43.4206 33.3338 42.887 33.6619C42.3533 33.9901 41.7286 34.1541 41.0127 34.1541ZM41.0176 32.9062C41.4816 32.9062 41.8661 32.7836 42.171 32.5384C42.476 32.2931 42.7013 31.9666 42.8472 31.5589C42.9963 31.1513 43.0709 30.7022 43.0709 30.2116C43.0709 29.7244 42.9963 29.277 42.8472 28.8693C42.7013 28.4583 42.476 28.1286 42.171 27.88C41.8661 27.6314 41.4816 27.5071 41.0176 27.5071C40.5503 27.5071 40.1625 27.6314 39.8543 27.88C39.5494 28.1286 39.3223 28.4583 39.1732 28.8693C39.0273 29.277 38.9544 29.7244 38.9544 30.2116C38.9544 30.7022 39.0273 31.1513 39.1732 31.5589C39.3223 31.9666 39.5494 32.2931 39.8543 32.5384C40.1625 32.7836 40.5503 32.9062 41.0176 32.9062ZM46.2316 36.8636V26.3636H47.6833V27.6016H47.8076C47.8938 27.4425 48.018 27.2585 48.1805 27.0497C48.3429 26.8409 48.5682 26.6586 48.8566 26.5028C49.1449 26.3438 49.5261 26.2642 50.0001 26.2642C50.6165 26.2642 51.1667 26.42 51.6506 26.7315C52.1345 27.0431 52.514 27.4922 52.7891 28.0788C53.0675 28.6655 53.2067 29.3714 53.2067 30.1967C53.2067 31.022 53.0692 31.7296 52.7941 32.3196C52.519 32.9062 52.1412 33.3587 51.6606 33.6768C51.18 33.9917 50.6314 34.1491 50.015 34.1491C49.551 34.1491 49.1715 34.0713 48.8765 33.9155C48.5848 33.7597 48.3561 33.5774 48.1904 33.3686C48.0247 33.1598 47.8971 32.9742 47.8076 32.8118H47.7181V36.8636H46.2316ZM47.6883 30.1818C47.6883 30.7187 47.7662 31.1894 47.9219 31.5938C48.0777 31.9981 48.3031 32.3146 48.5981 32.5433C48.893 32.7687 49.2543 32.8814 49.6819 32.8814C50.126 32.8814 50.4972 32.7637 50.7955 32.5284C51.0938 32.2898 51.3192 31.9666 51.4716 31.5589C51.6274 31.1513 51.7053 30.6922 51.7053 30.1818C51.7053 29.678 51.6291 29.2256 51.4766 28.8246C51.3275 28.4235 51.1021 28.107 50.8005 27.875C50.5022 27.643 50.1293 27.527 49.6819 27.527C49.251 27.527 48.8864 27.638 48.5881 27.8601C48.2931 28.0821 48.0694 28.392 47.917 28.7898C47.7645 29.1875 47.6883 29.6515 47.6883 30.1818ZM58.0888 34.1541C57.3729 34.1541 56.7482 33.9901 56.2145 33.6619C55.6809 33.3338 55.2666 32.8748 54.9716 32.2848C54.6767 31.6948 54.5292 31.0054 54.5292 30.2166C54.5292 29.4245 54.6767 28.7318 54.9716 28.1385C55.2666 27.5452 55.6809 27.0845 56.2145 26.7564C56.7482 26.4283 57.3729 26.2642 58.0888 26.2642C58.8047 26.2642 59.4295 26.4283 59.9631 26.7564C60.4967 27.0845 60.911 27.5452 61.206 28.1385C61.501 28.7318 61.6485 29.4245 61.6485 30.2166C61.6485 31.0054 61.501 31.6948 61.206 32.2848C60.911 32.8748 60.4967 33.3338 59.9631 33.6619C59.4295 33.9901 58.8047 34.1541 58.0888 34.1541ZM58.0938 32.9062C58.5578 32.9062 58.9423 32.7836 59.2472 32.5384C59.5521 32.2931 59.7775 31.9666 59.9234 31.5589C60.0725 31.1513 60.1471 30.7022 60.1471 30.2116C60.1471 29.7244 60.0725 29.277 59.9234 28.8693C59.7775 28.4583 59.5521 28.1286 59.2472 27.88C58.9423 27.6314 58.5578 27.5071 58.0938 27.5071C57.6265 27.5071 57.2387 27.6314 56.9305 27.88C56.6255 28.1286 56.3985 28.4583 56.2493 28.8693C56.1035 29.277 56.0306 29.7244 56.0306 30.2116C56.0306 30.7022 56.1035 31.1513 56.2493 31.5589C56.3985 31.9666 56.6255 32.2931 56.9305 32.5384C57.2387 32.7836 57.6265 32.9062 58.0938 32.9062ZM63.3078 34V26.3636H66.4747C67.3364 26.3636 68.0192 26.5476 68.523 26.9155C69.0267 27.2801 69.2786 27.7756 69.2786 28.402C69.2786 28.8494 69.1361 29.2041 68.8511 29.4659C68.566 29.7277 68.1882 29.9034 67.7176 29.9929C68.0589 30.0327 68.3722 30.1354 68.6572 30.3011C68.9422 30.4635 69.1709 30.6823 69.3433 30.9574C69.5189 31.2325 69.6068 31.5606 69.6068 31.9418C69.6068 32.3461 69.5024 32.7041 69.2936 33.0156C69.0848 33.3239 68.7815 33.5658 68.3838 33.7415C67.9893 33.9138 67.5137 34 66.9569 34H63.3078ZM64.7048 32.7571H66.9569C67.3248 32.7571 67.6132 32.6693 67.822 32.4936C68.0308 32.3179 68.1352 32.0793 68.1352 31.7777C68.1352 31.4231 68.0308 31.1446 67.822 30.9425C67.6132 30.737 67.3248 30.6342 66.9569 30.6342H64.7048V32.7571ZM64.7048 29.5455H66.4896C66.768 29.5455 67.0066 29.5057 67.2055 29.4261C67.4077 29.3466 67.5618 29.2339 67.6678 29.0881C67.7772 28.9389 67.8319 28.7633 67.8319 28.5611C67.8319 28.2661 67.7109 28.0357 67.469 27.87C67.227 27.7043 66.8956 27.6214 66.4747 27.6214H64.7048V29.5455ZM72.3561 28.9886H74.5734C75.508 28.9886 76.2273 29.2206 76.7311 29.6847C77.2348 30.1487 77.4867 30.7469 77.4867 31.4794C77.4867 31.9567 77.374 32.3859 77.1487 32.767C76.9233 33.1482 76.5935 33.4498 76.1593 33.6719C75.7251 33.8906 75.1965 34 74.5734 34H71.2374V26.3636H72.6941V32.7173H74.5734C75.0009 32.7173 75.3523 32.6063 75.6274 32.3842C75.9025 32.1589 76.04 31.8722 76.04 31.5241C76.04 31.1562 75.9025 30.8563 75.6274 30.6243C75.3523 30.389 75.0009 30.2713 74.5734 30.2713H72.3561V28.9886ZM82.4447 34.1541C81.6923 34.1541 81.0443 33.9934 80.5008 33.6719C79.9605 33.3471 79.5429 32.8913 79.2479 32.3047C78.9563 31.7147 78.8104 31.0237 78.8104 30.2315C78.8104 29.4493 78.9563 28.7599 79.2479 28.1634C79.5429 27.5668 79.9539 27.1011 80.4809 26.7663C81.0112 26.4316 81.631 26.2642 82.3403 26.2642C82.7711 26.2642 83.1887 26.3355 83.5931 26.478C83.9975 26.6205 84.3604 26.8442 84.6819 27.1491C85.0034 27.4541 85.2569 27.8501 85.4425 28.3374C85.6281 28.8213 85.7209 29.4096 85.7209 30.1023V30.6293H79.6506V29.5156H84.2643C84.2643 29.1245 84.1847 28.7782 84.0256 28.4766C83.8665 28.1716 83.6428 27.9313 83.3545 27.7557C83.0694 27.58 82.7347 27.4922 82.3502 27.4922C81.9326 27.4922 81.568 27.5949 81.2564 27.8004C80.9482 28.0026 80.7096 28.2678 80.5405 28.5959C80.3748 28.9207 80.292 29.2737 80.292 29.6548V30.5249C80.292 31.0353 80.3814 31.4695 80.5604 31.8274C80.7427 32.1854 80.9963 32.4588 81.3211 32.6477C81.6459 32.8333 82.0254 32.9261 82.4596 32.9261C82.7413 32.9261 82.9982 32.8864 83.2302 32.8068C83.4622 32.724 83.6627 32.6013 83.8317 32.4389C84.0008 32.2765 84.13 32.076 84.2195 31.8374L85.6265 32.0909C85.5138 32.5052 85.3116 32.8681 85.0199 33.1797C84.7316 33.4879 84.3687 33.7282 83.9312 33.9006C83.497 34.0696 83.0015 34.1541 82.4447 34.1541ZM94.292 34.1541C93.5528 34.1541 92.9165 33.9867 92.3829 33.652C91.8526 33.3139 91.4449 32.8482 91.1599 32.255C90.8748 31.6617 90.7323 30.9822 90.7323 30.2166C90.7323 29.4411 90.8781 28.7566 91.1698 28.1634C91.4615 27.5668 91.8725 27.1011 92.4028 26.7663C92.9331 26.4316 93.5578 26.2642 94.277 26.2642C94.8571 26.2642 95.3741 26.3719 95.8282 26.5874C96.2823 26.7995 96.6485 27.0978 96.9269 27.4822C97.2086 27.8667 97.376 28.3158 97.429 28.8295H95.9823C95.9028 28.4716 95.7205 28.1634 95.4354 27.9048C95.1537 27.6463 94.7759 27.517 94.3019 27.517C93.8876 27.517 93.5247 27.6264 93.2131 27.8452C92.9049 28.0606 92.6646 28.3688 92.4922 28.7699C92.3199 29.1676 92.2337 29.6383 92.2337 30.1818C92.2337 30.7386 92.3182 31.2192 92.4873 31.6236C92.6563 32.0279 92.8949 32.3411 93.2032 32.5632C93.5147 32.7853 93.881 32.8963 94.3019 32.8963C94.5836 32.8963 94.8388 32.8449 95.0675 32.7422C95.2995 32.6361 95.4934 32.4853 95.6492 32.2898C95.8083 32.0942 95.9193 31.8589 95.9823 31.5838H97.429C97.376 32.0777 97.2153 32.5185 96.9468 32.9062C96.6783 33.294 96.3187 33.599 95.868 33.821C95.4205 34.0431 94.8952 34.1541 94.292 34.1541ZM99.0187 34V26.3636H105.248V34H103.791V27.6463H100.465V34H99.0187ZM107.235 36.8636V26.3636H108.687V27.6016H108.811C108.898 27.4425 109.022 27.2585 109.184 27.0497C109.347 26.8409 109.572 26.6586 109.86 26.5028C110.149 26.3438 110.53 26.2642 111.004 26.2642C111.62 26.2642 112.171 26.42 112.655 26.7315C113.138 27.0431 113.518 27.4922 113.793 28.0788C114.071 28.6655 114.211 29.3714 114.211 30.1967C114.211 31.022 114.073 31.7296 113.798 32.3196C113.523 32.9062 113.145 33.3587 112.664 33.6768C112.184 33.9917 111.635 34.1491 111.019 34.1491C110.555 34.1491 110.175 34.0713 109.88 33.9155C109.589 33.7597 109.36 33.5774 109.194 33.3686C109.029 33.1598 108.901 32.9742 108.811 32.8118H108.722V36.8636H107.235ZM108.692 30.1818C108.692 30.7187 108.77 31.1894 108.926 31.5938C109.082 31.9981 109.307 32.3146 109.602 32.5433C109.897 32.7687 110.258 32.8814 110.686 32.8814C111.13 32.8814 111.501 32.7637 111.799 32.5284C112.098 32.2898 112.323 31.9666 112.476 31.5589C112.631 31.1513 112.709 30.6922 112.709 30.1818C112.709 29.678 112.633 29.2256 112.481 28.8246C112.331 28.4235 112.106 28.107 111.804 27.875C111.506 27.643 111.133 27.527 110.686 27.527C110.255 27.527 109.89 27.638 109.592 27.8601C109.297 28.0821 109.073 28.392 108.921 28.7898C108.768 29.1875 108.692 29.6515 108.692 30.1818ZM117.333 31.9169L120.699 26.3636H122.299V34H120.843V28.4418L117.492 34H115.876V26.3636H117.333V31.9169ZM129.473 29.5405V30.8281H125.337V29.5405H129.473ZM125.755 26.3636V34H124.298V26.3636H125.755ZM130.512 26.3636V34H129.061V26.3636H130.512ZM131.554 27.6463V26.3636H137.997V27.6463H135.506V34H134.055V27.6463H131.554ZM141.436 34.169C140.952 34.169 140.515 34.0795 140.124 33.9006C139.733 33.7183 139.423 33.4548 139.194 33.1101C138.969 32.7654 138.856 32.3428 138.856 31.8423C138.856 31.4115 138.939 31.0568 139.105 30.7784C139.27 30.5 139.494 30.2796 139.776 30.1172C140.058 29.9548 140.372 29.8321 140.72 29.7493C141.068 29.6664 141.423 29.6035 141.784 29.5604C142.242 29.5073 142.613 29.4643 142.898 29.4311C143.183 29.3946 143.39 29.3366 143.519 29.2571C143.649 29.1776 143.713 29.0483 143.713 28.8693V28.8345C143.713 28.4003 143.591 28.0639 143.345 27.8253C143.103 27.5866 142.742 27.4673 142.262 27.4673C141.761 27.4673 141.367 27.5784 141.078 27.8004C140.793 28.0192 140.596 28.2628 140.487 28.5312L139.09 28.2131C139.255 27.7491 139.497 27.3745 139.816 27.0895C140.137 26.8011 140.507 26.5923 140.924 26.4631C141.342 26.3305 141.781 26.2642 142.242 26.2642C142.547 26.2642 142.87 26.3007 143.211 26.3736C143.556 26.4432 143.877 26.5724 144.176 26.7614C144.477 26.9503 144.724 27.2204 144.916 27.5717C145.109 27.9197 145.205 28.3722 145.205 28.929V34H143.753V32.956H143.693C143.597 33.1482 143.453 33.3371 143.261 33.5227C143.069 33.7083 142.822 33.8625 142.52 33.9851C142.219 34.1077 141.857 34.169 141.436 34.169ZM141.759 32.9759C142.17 32.9759 142.522 32.8946 142.813 32.7322C143.108 32.5698 143.332 32.3577 143.485 32.0959C143.64 31.8307 143.718 31.5473 143.718 31.2457V30.2614C143.665 30.3144 143.562 30.3641 143.41 30.4105C143.261 30.4536 143.09 30.4917 142.898 30.5249C142.706 30.5547 142.518 30.5829 142.336 30.6094C142.154 30.6326 142.001 30.6525 141.879 30.669C141.59 30.7055 141.327 30.7668 141.088 30.853C140.853 30.9392 140.664 31.0634 140.522 31.2259C140.382 31.3849 140.313 31.5971 140.313 31.8622C140.313 32.2301 140.449 32.5085 140.72 32.6974C140.992 32.883 141.339 32.9759 141.759 32.9759Z" fill="#202220"/>
<g opacity="0.7">
<path d="M103 171.666C79.9875 171.666 61.3334 153.012 61.3334 130C61.3334 106.987 79.9875 88.333 103 88.333C126.013 88.333 144.667 106.987 144.667 130C144.667 153.012 126.013 171.666 103 171.666ZM103 163.333C111.841 163.333 120.319 159.821 126.57 153.57C132.821 147.319 136.333 138.84 136.333 130C136.333 121.159 132.821 112.681 126.57 106.429C120.319 100.178 111.841 96.6663 103 96.6663C94.1595 96.6663 85.681 100.178 79.4298 106.429C73.1786 112.681 69.6667 121.159 69.6667 130C69.6667 138.84 73.1786 147.319 79.4298 153.57C85.681 159.821 94.1595 163.333 103 163.333V163.333ZM82.1667 150.833C82.1667 145.308 84.3616 140.009 88.2686 136.102C92.1757 132.195 97.4747 130 103 130C108.525 130 113.824 132.195 117.731 136.102C121.638 140.009 123.833 145.308 123.833 150.833H115.5C115.5 147.518 114.183 144.338 111.839 141.994C109.495 139.65 106.315 138.333 103 138.333C99.6848 138.333 96.5054 139.65 94.1612 141.994C91.817 144.338 90.5 147.518 90.5 150.833H82.1667ZM86.3334 125.833C84.6758 125.833 83.0861 125.175 81.914 124.002C80.7419 122.83 80.0834 121.241 80.0834 119.583C80.0834 117.925 80.7419 116.336 81.914 115.164C83.0861 113.991 84.6758 113.333 86.3334 113.333C87.991 113.333 89.5807 113.991 90.7528 115.164C91.9249 116.336 92.5834 117.925 92.5834 119.583C92.5834 121.241 91.9249 122.83 90.7528 124.002C89.5807 125.175 87.991 125.833 86.3334 125.833ZM119.667 125.833C118.009 125.833 116.419 125.175 115.247 124.002C114.075 122.83 113.417 121.241 113.417 119.583C113.417 117.925 114.075 116.336 115.247 115.164C116.419 113.991 118.009 113.333 119.667 113.333C121.324 113.333 122.914 113.991 124.086 115.164C125.258 116.336 125.917 117.925 125.917 119.583C125.917 121.241 125.258 122.83 124.086 124.002C122.914 125.175 121.324 125.833 119.667 125.833Z" fill="#EA4E3D"/>
</g>
<rect x="20" y="223" width="167" height="41" rx="12" fill="#EA4E3D"/>
<path d="M77.5 237.5C79.5254 237.5 81.1667 239.167 81.1667 241.5C81.1667 246.167 76.1667 248.833 74.5 249.833C73.1814 249.042 69.7774 247.209 68.412 244.167H71.544L72.1667 243.129L74.1667 246.463L75.544 244.167H77.8334V242.833H74.7894L74.1667 243.871L72.1667 240.537L70.7894 242.833H67.9734C67.8827 242.409 67.8334 241.964 67.8334 241.5C67.8334 239.167 69.5 237.5 71.5 237.5C72.74 237.5 73.8334 238.167 74.5 238.833C75.1667 238.167 76.26 237.5 77.5 237.5Z" fill="white"/>
<path d="M91.6186 249V238.818H93.1548V243.243H98.2308V238.818H99.772V249H98.2308V244.56H93.1548V249H91.6186ZM103.347 246.917L106.712 241.364H108.313V249H106.857V243.442L103.506 249H101.89V241.364H103.347V246.917ZM109.859 246.982H111.381C111.401 247.293 111.541 247.533 111.803 247.702C112.068 247.871 112.411 247.956 112.832 247.956C113.26 247.956 113.625 247.865 113.926 247.683C114.228 247.497 114.379 247.21 114.379 246.822C114.379 246.59 114.321 246.388 114.205 246.216C114.092 246.04 113.931 245.904 113.722 245.808C113.517 245.712 113.273 245.664 112.991 245.664H111.749V244.496H112.991C113.412 244.496 113.727 244.4 113.936 244.207C114.145 244.015 114.249 243.775 114.249 243.487C114.249 243.175 114.137 242.925 113.911 242.736C113.689 242.544 113.379 242.447 112.982 242.447C112.577 242.447 112.241 242.539 111.972 242.721C111.704 242.9 111.563 243.132 111.55 243.417H110.048C110.058 242.989 110.188 242.615 110.436 242.293C110.688 241.969 111.026 241.717 111.45 241.538C111.878 241.355 112.363 241.264 112.907 241.264C113.474 241.264 113.964 241.355 114.379 241.538C114.793 241.72 115.113 241.972 115.338 242.293C115.567 242.615 115.681 242.984 115.681 243.402C115.681 243.823 115.555 244.168 115.303 244.436C115.055 244.701 114.73 244.892 114.329 245.008V245.087C114.624 245.107 114.886 245.197 115.114 245.356C115.343 245.515 115.522 245.725 115.651 245.987C115.781 246.249 115.845 246.546 115.845 246.877C115.845 247.344 115.716 247.749 115.457 248.09C115.202 248.432 114.848 248.695 114.393 248.881C113.943 249.063 113.427 249.154 112.847 249.154C112.284 249.154 111.778 249.066 111.331 248.891C110.887 248.712 110.534 248.46 110.272 248.135C110.013 247.81 109.876 247.426 109.859 246.982ZM117.38 249V241.364H118.867V244.565H119.583L122.103 241.364H123.943L120.985 245.077L123.977 249H122.133L119.831 245.947H118.867V249H117.38ZM128.034 249.154C127.318 249.154 126.694 248.99 126.16 248.662C125.626 248.334 125.212 247.875 124.917 247.285C124.622 246.695 124.475 246.005 124.475 245.217C124.475 244.424 124.622 243.732 124.917 243.138C125.212 242.545 125.626 242.085 126.16 241.756C126.694 241.428 127.318 241.264 128.034 241.264C128.75 241.264 129.375 241.428 129.909 241.756C130.442 242.085 130.856 242.545 131.151 243.138C131.446 243.732 131.594 244.424 131.594 245.217C131.594 246.005 131.446 246.695 131.151 247.285C130.856 247.875 130.442 248.334 129.909 248.662C129.375 248.99 128.75 249.154 128.034 249.154ZM128.039 247.906C128.503 247.906 128.888 247.784 129.193 247.538C129.498 247.293 129.723 246.967 129.869 246.559C130.018 246.151 130.093 245.702 130.093 245.212C130.093 244.724 130.018 244.277 129.869 243.869C129.723 243.458 129.498 243.129 129.193 242.88C128.888 242.631 128.503 242.507 128.039 242.507C127.572 242.507 127.184 242.631 126.876 242.88C126.571 243.129 126.344 243.458 126.195 243.869C126.049 244.277 125.976 244.724 125.976 245.212C125.976 245.702 126.049 246.151 126.195 246.559C126.344 246.967 126.571 247.293 126.876 247.538C127.184 247.784 127.572 247.906 128.039 247.906ZM136.544 249.154C135.792 249.154 135.144 248.993 134.6 248.672C134.06 248.347 133.643 247.891 133.348 247.305C133.056 246.715 132.91 246.024 132.91 245.232C132.91 244.449 133.056 243.76 133.348 243.163C133.643 242.567 134.054 242.101 134.581 241.766C135.111 241.432 135.731 241.264 136.44 241.264C136.871 241.264 137.288 241.335 137.693 241.478C138.097 241.621 138.46 241.844 138.782 242.149C139.103 242.454 139.357 242.85 139.542 243.337C139.728 243.821 139.821 244.41 139.821 245.102V245.629H133.75V244.516H138.364C138.364 244.125 138.284 243.778 138.125 243.477C137.966 243.172 137.743 242.931 137.454 242.756C137.169 242.58 136.834 242.492 136.45 242.492C136.032 242.492 135.668 242.595 135.356 242.8C135.048 243.003 134.809 243.268 134.64 243.596C134.475 243.921 134.392 244.274 134.392 244.655V245.525C134.392 246.035 134.481 246.469 134.66 246.827C134.842 247.185 135.096 247.459 135.421 247.648C135.746 247.833 136.125 247.926 136.559 247.926C136.841 247.926 137.098 247.886 137.33 247.807C137.562 247.724 137.762 247.601 137.931 247.439C138.1 247.277 138.23 247.076 138.319 246.837L139.726 247.091C139.614 247.505 139.411 247.868 139.12 248.18C138.831 248.488 138.468 248.728 138.031 248.901C137.597 249.07 137.101 249.154 136.544 249.154Z" fill="white"/>
</svg>
