<svg width="207" height="280" viewBox="0 0 207 280" fill="none" xmlns="http://www.w3.org/2000/svg">
<rect width="207" height="280" rx="12" fill="#7DDC6D" fill-opacity="0.1"/>
<path d="M23.3423 34.1392C22.6596 34.1392 22.0497 34.0215 21.5128 33.7862C20.9792 33.5509 20.5566 33.2244 20.245 32.8068C19.9368 32.3859 19.7711 31.8987 19.7479 31.3452H21.3089C21.3288 31.6468 21.4299 31.9086 21.6122 32.1307C21.7978 32.3494 22.0398 32.5185 22.3381 32.6378C22.6364 32.7571 22.9678 32.8168 23.3324 32.8168C23.7334 32.8168 24.0881 32.7472 24.3963 32.608C24.7079 32.4687 24.9515 32.2749 25.1271 32.0263C25.3028 31.7744 25.3906 31.4844 25.3906 31.1562C25.3906 30.8149 25.3028 30.5149 25.1271 30.2564C24.9548 29.9946 24.7012 29.7891 24.3665 29.6399C24.035 29.4908 23.634 29.4162 23.1633 29.4162H22.3033V28.1634H23.1633C23.5412 28.1634 23.8726 28.0954 24.1577 27.9595C24.446 27.8236 24.6714 27.6347 24.8338 27.3928C24.9962 27.1475 25.0774 26.8608 25.0774 26.5327C25.0774 26.2178 25.0062 25.9444 24.8636 25.7124C24.7244 25.477 24.5256 25.2931 24.267 25.1605C24.0118 25.0279 23.7102 24.9616 23.3622 24.9616C23.0308 24.9616 22.7209 25.023 22.4325 25.1456C22.1475 25.2649 21.9155 25.4373 21.7365 25.6626C21.5575 25.8847 21.4614 26.1515 21.4481 26.4631H19.9616C19.9782 25.9129 20.1406 25.429 20.4489 25.0114C20.7604 24.5937 21.1714 24.2673 21.6818 24.032C22.1922 23.7966 22.759 23.679 23.3821 23.679C24.035 23.679 24.5985 23.8066 25.0724 24.0618C25.5497 24.3137 25.9176 24.6501 26.1761 25.071C26.438 25.492 26.5672 25.9527 26.5639 26.4531C26.5672 27.0232 26.4081 27.5071 26.0866 27.9048C25.7685 28.3026 25.3442 28.5694 24.8139 28.7053V28.7848C25.4901 28.8875 26.0137 29.156 26.3849 29.5902C26.7595 30.0244 26.9451 30.563 26.9418 31.206C26.9451 31.7661 26.7893 32.2682 26.4744 32.7124C26.1629 33.1565 25.737 33.5062 25.1967 33.7614C24.6565 34.0133 24.0383 34.1392 23.3423 34.1392ZM28.0952 36.2024V32.7124H28.7166C28.8757 32.5665 29.0099 32.3925 29.1193 32.1903C29.232 31.9882 29.3265 31.7479 29.4027 31.4695C29.4822 31.1911 29.5485 30.8662 29.6016 30.495C29.6546 30.1205 29.701 29.6929 29.7408 29.2124L29.9794 26.3636H35.1697V32.7124H36.343V36.2024H34.8913V34H29.5668V36.2024H28.0952ZM30.3075 32.7124H33.718V27.6364H31.3118L31.1527 29.2124C31.0765 30.0144 30.9803 30.7105 30.8643 31.3004C30.7483 31.8871 30.5627 32.3577 30.3075 32.7124ZM41.0126 34.1541C40.2967 34.1541 39.6719 33.9901 39.1383 33.6619C38.6047 33.3338 38.1904 32.8748 37.8954 32.2848C37.6004 31.6948 37.4529 31.0054 37.4529 30.2166C37.4529 29.4245 37.6004 28.7318 37.8954 28.1385C38.1904 27.5452 38.6047 27.0845 39.1383 26.7564C39.6719 26.4283 40.2967 26.2642 41.0126 26.2642C41.7285 26.2642 42.3533 26.4283 42.8869 26.7564C43.4205 27.0845 43.8348 27.5452 44.1298 28.1385C44.4248 28.7318 44.5723 29.4245 44.5723 30.2166C44.5723 31.0054 44.4248 31.6948 44.1298 32.2848C43.8348 32.8748 43.4205 33.3338 42.8869 33.6619C42.3533 33.9901 41.7285 34.1541 41.0126 34.1541ZM41.0176 32.9062C41.4816 32.9062 41.8661 32.7836 42.171 32.5384C42.4759 32.2931 42.7013 31.9666 42.8471 31.5589C42.9963 31.1513 43.0708 30.7022 43.0708 30.2116C43.0708 29.7244 42.9963 29.277 42.8471 28.8693C42.7013 28.4583 42.4759 28.1286 42.171 27.88C41.8661 27.6314 41.4816 27.5071 41.0176 27.5071C40.5502 27.5071 40.1625 27.6314 39.8542 27.88C39.5493 28.1286 39.3223 28.4583 39.1731 28.8693C39.0273 29.277 38.9544 29.7244 38.9544 30.2116C38.9544 30.7022 39.0273 31.1513 39.1731 31.5589C39.3223 31.9666 39.5493 32.2931 39.8542 32.5384C40.1625 32.7836 40.5502 32.9062 41.0176 32.9062ZM46.2315 36.8636V26.3636H47.6832V27.6016H47.8075C47.8937 27.4425 48.018 27.2585 48.1804 27.0497C48.3428 26.8409 48.5682 26.6586 48.8565 26.5028C49.1449 26.3438 49.526 26.2642 50 26.2642C50.6165 26.2642 51.1667 26.42 51.6506 26.7315C52.1345 27.0431 52.514 27.4922 52.7891 28.0788C53.0675 28.6655 53.2067 29.3714 53.2067 30.1967C53.2067 31.022 53.0691 31.7296 52.794 32.3196C52.5189 32.9062 52.1411 33.3587 51.6605 33.6768C51.1799 33.9917 50.6314 34.1491 50.0149 34.1491C49.5509 34.1491 49.1714 34.0713 48.8764 33.9155C48.5847 33.7597 48.3561 33.5774 48.1903 33.3686C48.0246 33.1598 47.897 32.9742 47.8075 32.8118H47.718V36.8636H46.2315ZM47.6882 30.1818C47.6882 30.7187 47.7661 31.1894 47.9219 31.5938C48.0776 31.9981 48.303 32.3146 48.598 32.5433C48.893 32.7687 49.2543 32.8814 49.6818 32.8814C50.1259 32.8814 50.4972 32.7637 50.7954 32.5284C51.0937 32.2898 51.3191 31.9666 51.4716 31.5589C51.6274 31.1513 51.7053 30.6922 51.7053 30.1818C51.7053 29.678 51.629 29.2256 51.4766 28.8246C51.3274 28.4235 51.102 28.107 50.8004 27.875C50.5021 27.643 50.1293 27.527 49.6818 27.527C49.2509 27.527 48.8864 27.638 48.5881 27.8601C48.2931 28.0821 48.0694 28.392 47.9169 28.7898C47.7644 29.1875 47.6882 29.6515 47.6882 30.1818ZM58.0888 34.1541C57.3729 34.1541 56.7481 33.9901 56.2145 33.6619C55.6809 33.3338 55.2666 32.8748 54.9716 32.2848C54.6766 31.6948 54.5291 31.0054 54.5291 30.2166C54.5291 29.4245 54.6766 28.7318 54.9716 28.1385C55.2666 27.5452 55.6809 27.0845 56.2145 26.7564C56.7481 26.4283 57.3729 26.2642 58.0888 26.2642C58.8047 26.2642 59.4294 26.4283 59.9631 26.7564C60.4967 27.0845 60.911 27.5452 61.206 28.1385C61.5009 28.7318 61.6484 29.4245 61.6484 30.2166C61.6484 31.0054 61.5009 31.6948 61.206 32.2848C60.911 32.8748 60.4967 33.3338 59.9631 33.6619C59.4294 33.9901 58.8047 34.1541 58.0888 34.1541ZM58.0937 32.9062C58.5578 32.9062 58.9422 32.7836 59.2472 32.5384C59.5521 32.2931 59.7775 31.9666 59.9233 31.5589C60.0724 31.1513 60.147 30.7022 60.147 30.2116C60.147 29.7244 60.0724 29.277 59.9233 28.8693C59.7775 28.4583 59.5521 28.1286 59.2472 27.88C58.9422 27.6314 58.5578 27.5071 58.0937 27.5071C57.6264 27.5071 57.2386 27.6314 56.9304 27.88C56.6255 28.1286 56.3984 28.4583 56.2493 28.8693C56.1035 29.277 56.0305 29.7244 56.0305 30.2116C56.0305 30.7022 56.1035 31.1513 56.2493 31.5589C56.3984 31.9666 56.6255 32.2931 56.9304 32.5384C57.2386 32.7836 57.6264 32.9062 58.0937 32.9062ZM63.3077 34V26.3636H66.4746C67.3363 26.3636 68.0191 26.5476 68.5229 26.9155C69.0267 27.2801 69.2786 27.7756 69.2786 28.402C69.2786 28.8494 69.1361 29.2041 68.851 29.4659C68.566 29.7277 68.1881 29.9034 67.7175 29.9929C68.0589 30.0327 68.3721 30.1354 68.6571 30.3011C68.9422 30.4635 69.1709 30.6823 69.3432 30.9574C69.5189 31.2325 69.6067 31.5606 69.6067 31.9418C69.6067 32.3461 69.5023 32.7041 69.2935 33.0156C69.0847 33.3239 68.7814 33.5658 68.3837 33.7415C67.9893 33.9138 67.5137 34 66.9568 34H63.3077ZM64.7047 32.7571H66.9568C67.3247 32.7571 67.6131 32.6693 67.8219 32.4936C68.0307 32.3179 68.1351 32.0793 68.1351 31.7777C68.1351 31.4231 68.0307 31.1446 67.8219 30.9425C67.6131 30.737 67.3247 30.6342 66.9568 30.6342H64.7047V32.7571ZM64.7047 29.5455H66.4895C66.7679 29.5455 67.0066 29.5057 67.2054 29.4261C67.4076 29.3466 67.5617 29.2339 67.6678 29.0881C67.7772 28.9389 67.8318 28.7633 67.8318 28.5611C67.8318 28.2661 67.7109 28.0357 67.4689 27.87C67.227 27.7043 66.8955 27.6214 66.4746 27.6214H64.7047V29.5455ZM72.356 28.9886H74.5733C75.508 28.9886 76.2272 29.2206 76.731 29.6847C77.2348 30.1487 77.4867 30.7469 77.4867 31.4794C77.4867 31.9567 77.374 32.3859 77.1486 32.767C76.9232 33.1482 76.5934 33.4498 76.1593 33.6719C75.7251 33.8906 75.1964 34 74.5733 34H71.2374V26.3636H72.6941V32.7173H74.5733C75.0009 32.7173 75.3522 32.6063 75.6273 32.3842C75.9024 32.1589 76.0399 31.8722 76.0399 31.5241C76.0399 31.1562 75.9024 30.8563 75.6273 30.6243C75.3522 30.389 75.0009 30.2713 74.5733 30.2713H72.356V28.9886ZM82.4446 34.1541C81.6922 34.1541 81.0443 33.9934 80.5007 33.6719C79.9605 33.3471 79.5428 32.8913 79.2479 32.3047C78.9562 31.7147 78.8104 31.0237 78.8104 30.2315C78.8104 29.4493 78.9562 28.7599 79.2479 28.1634C79.5428 27.5668 79.9538 27.1011 80.4808 26.7663C81.0111 26.4316 81.6309 26.2642 82.3402 26.2642C82.7711 26.2642 83.1887 26.3355 83.593 26.478C83.9974 26.6205 84.3603 26.8442 84.6818 27.1491C85.0033 27.4541 85.2569 27.8501 85.4425 28.3374C85.6281 28.8213 85.7209 29.4096 85.7209 30.1023V30.6293H79.6506V29.5156H84.2642C84.2642 29.1245 84.1847 28.7782 84.0256 28.4766C83.8665 28.1716 83.6428 27.9313 83.3544 27.7557C83.0694 27.58 82.7346 27.4922 82.3501 27.4922C81.9325 27.4922 81.5679 27.5949 81.2564 27.8004C80.9481 28.0026 80.7095 28.2678 80.5405 28.5959C80.3748 28.9207 80.2919 29.2737 80.2919 29.6548V30.5249C80.2919 31.0353 80.3814 31.4695 80.5604 31.8274C80.7427 32.1854 80.9962 32.4588 81.321 32.6477C81.6458 32.8333 82.0253 32.9261 82.4595 32.9261C82.7412 32.9261 82.9981 32.8864 83.2301 32.8068C83.4621 32.724 83.6626 32.6013 83.8317 32.4389C84.0007 32.2765 84.13 32.076 84.2195 31.8374L85.6264 32.0909C85.5137 32.5052 85.3115 32.8681 85.0199 33.1797C84.7315 33.4879 84.3686 33.7282 83.9311 33.9006C83.4969 34.0696 83.0014 34.1541 82.4446 34.1541ZM94.2919 34.1541C93.5528 34.1541 92.9164 33.9867 92.3828 33.652C91.8525 33.3139 91.4448 32.8482 91.1598 32.255C90.8748 31.6617 90.7322 30.9822 90.7322 30.2166C90.7322 29.4411 90.8781 28.7566 91.1697 28.1634C91.4614 27.5668 91.8724 27.1011 92.4027 26.7663C92.933 26.4316 93.5578 26.2642 94.277 26.2642C94.857 26.2642 95.374 26.3719 95.8281 26.5874C96.2822 26.7995 96.6484 27.0978 96.9268 27.4822C97.2086 27.8667 97.3759 28.3158 97.429 28.8295H95.9822C95.9027 28.4716 95.7204 28.1634 95.4354 27.9048C95.1536 27.6463 94.7758 27.517 94.3018 27.517C93.8875 27.517 93.5246 27.6264 93.2131 27.8452C92.9048 28.0606 92.6645 28.3688 92.4922 28.7699C92.3198 29.1676 92.2337 29.6383 92.2337 30.1818C92.2337 30.7386 92.3182 31.2192 92.4872 31.6236C92.6562 32.0279 92.8949 32.3411 93.2031 32.5632C93.5147 32.7853 93.8809 32.8963 94.3018 32.8963C94.5836 32.8963 94.8388 32.8449 95.0675 32.7422C95.2995 32.6361 95.4934 32.4853 95.6491 32.2898C95.8082 32.0942 95.9193 31.8589 95.9822 31.5838H97.429C97.3759 32.0777 97.2152 32.5185 96.9467 32.9062C96.6783 33.294 96.3186 33.599 95.8679 33.821C95.4204 34.0431 94.8951 34.1541 94.2919 34.1541ZM99.0186 34V26.3636H105.248V34H103.791V27.6463H100.465V34H99.0186ZM107.235 36.8636V26.3636H108.687V27.6016H108.811C108.898 27.4425 109.022 27.2585 109.184 27.0497C109.347 26.8409 109.572 26.6586 109.86 26.5028C110.149 26.3438 110.53 26.2642 111.004 26.2642C111.62 26.2642 112.171 26.42 112.654 26.7315C113.138 27.0431 113.518 27.4922 113.793 28.0788C114.071 28.6655 114.211 29.3714 114.211 30.1967C114.211 31.022 114.073 31.7296 113.798 32.3196C113.523 32.9062 113.145 33.3587 112.664 33.6768C112.184 33.9917 111.635 34.1491 111.019 34.1491C110.555 34.1491 110.175 34.0713 109.88 33.9155C109.589 33.7597 109.36 33.5774 109.194 33.3686C109.029 33.1598 108.901 32.9742 108.811 32.8118H108.722V36.8636H107.235ZM108.692 30.1818C108.692 30.7187 108.77 31.1894 108.926 31.5938C109.082 31.9981 109.307 32.3146 109.602 32.5433C109.897 32.7687 110.258 32.8814 110.686 32.8814C111.13 32.8814 111.501 32.7637 111.799 32.5284C112.098 32.2898 112.323 31.9666 112.475 31.5589C112.631 31.1513 112.709 30.6922 112.709 30.1818C112.709 29.678 112.633 29.2256 112.48 28.8246C112.331 28.4235 112.106 28.107 111.804 27.875C111.506 27.643 111.133 27.527 110.686 27.527C110.255 27.527 109.89 27.638 109.592 27.8601C109.297 28.0821 109.073 28.392 108.921 28.7898C108.768 29.1875 108.692 29.6515 108.692 30.1818ZM117.333 31.9169L120.699 26.3636H122.299V34H120.843V28.4418L117.492 34H115.876V26.3636H117.333V31.9169ZM129.473 29.5405V30.8281H125.337V29.5405H129.473ZM125.755 26.3636V34H124.298V26.3636H125.755ZM130.512 26.3636V34H129.061V26.3636H130.512ZM131.554 27.6463V26.3636H137.997V27.6463H135.506V34H134.055V27.6463H131.554ZM141.436 34.169C140.952 34.169 140.515 34.0795 140.124 33.9006C139.733 33.7183 139.423 33.4548 139.194 33.1101C138.969 32.7654 138.856 32.3428 138.856 31.8423C138.856 31.4115 138.939 31.0568 139.105 30.7784C139.27 30.5 139.494 30.2796 139.776 30.1172C140.057 29.9548 140.372 29.8321 140.72 29.7493C141.068 29.6664 141.423 29.6035 141.784 29.5604C142.242 29.5073 142.613 29.4643 142.898 29.4311C143.183 29.3946 143.39 29.3366 143.519 29.2571C143.649 29.1776 143.713 29.0483 143.713 28.8693V28.8345C143.713 28.4003 143.591 28.0639 143.345 27.8253C143.103 27.5866 142.742 27.4673 142.262 27.4673C141.761 27.4673 141.367 27.5784 141.078 27.8004C140.793 28.0192 140.596 28.2628 140.487 28.5312L139.09 28.2131C139.255 27.7491 139.497 27.3745 139.816 27.0895C140.137 26.8011 140.507 26.5923 140.924 26.4631C141.342 26.3305 141.781 26.2642 142.242 26.2642C142.547 26.2642 142.87 26.3007 143.211 26.3736C143.556 26.4432 143.877 26.5724 144.176 26.7614C144.477 26.9503 144.724 27.2204 144.916 27.5717C145.109 27.9197 145.205 28.3722 145.205 28.929V34H143.753V32.956H143.693C143.597 33.1482 143.453 33.3371 143.261 33.5227C143.069 33.7083 142.822 33.8625 142.52 33.9851C142.218 34.1077 141.857 34.169 141.436 34.169ZM141.759 32.9759C142.17 32.9759 142.522 32.8946 142.813 32.7322C143.108 32.5698 143.332 32.3577 143.485 32.0959C143.64 31.8307 143.718 31.5473 143.718 31.2457V30.2614C143.665 30.3144 143.562 30.3641 143.41 30.4105C143.261 30.4536 143.09 30.4917 142.898 30.5249C142.706 30.5547 142.518 30.5829 142.336 30.6094C142.154 30.6326 142.001 30.6525 141.879 30.669C141.59 30.7055 141.327 30.7668 141.088 30.853C140.853 30.9392 140.664 31.0634 140.521 31.2259C140.382 31.3849 140.313 31.5971 140.313 31.8622C140.313 32.2301 140.449 32.5085 140.72 32.6974C140.992 32.883 141.338 32.9759 141.759 32.9759Z" fill="#202220"/>
<g opacity="0.7">
<path d="M104 171.666C80.9875 171.666 62.3333 153.012 62.3333 130C62.3333 106.987 80.9875 88.333 104 88.333C127.013 88.333 145.667 106.987 145.667 130C145.667 153.012 127.013 171.666 104 171.666ZM104 163.333C112.841 163.333 121.319 159.821 127.57 153.57C133.821 147.319 137.333 138.84 137.333 130C137.333 121.159 133.821 112.681 127.57 106.429C121.319 100.178 112.841 96.6663 104 96.6663C95.1595 96.6663 86.681 100.178 80.4298 106.429C74.1786 112.681 70.6667 121.159 70.6667 130C70.6667 138.84 74.1786 147.319 80.4298 153.57C86.681 159.821 95.1595 163.333 104 163.333V163.333ZM83.1667 134.166H91.5C91.5 137.482 92.817 140.661 95.1612 143.005C97.5054 145.349 100.685 146.666 104 146.666C107.315 146.666 110.495 145.349 112.839 143.005C115.183 140.661 116.5 137.482 116.5 134.166H124.833C124.833 139.692 122.638 144.991 118.731 148.898C114.824 152.805 109.525 155 104 155C98.4747 155 93.1756 152.805 89.2686 148.898C85.3616 144.991 83.1667 139.692 83.1667 134.166V134.166ZM87.3333 125.833C85.6757 125.833 84.086 125.175 82.9139 124.002C81.7418 122.83 81.0833 121.241 81.0833 119.583C81.0833 117.925 81.7418 116.336 82.9139 115.164C84.086 113.991 85.6757 113.333 87.3333 113.333C88.9909 113.333 90.5807 113.991 91.7528 115.164C92.9249 116.336 93.5833 117.925 93.5833 119.583C93.5833 121.241 92.9249 122.83 91.7528 124.002C90.5807 125.175 88.9909 125.833 87.3333 125.833ZM120.667 125.833C119.009 125.833 117.419 125.175 116.247 124.002C115.075 122.83 114.417 121.241 114.417 119.583C114.417 117.925 115.075 116.336 116.247 115.164C117.419 113.991 119.009 113.333 120.667 113.333C122.324 113.333 123.914 113.991 125.086 115.164C126.258 116.336 126.917 117.925 126.917 119.583C126.917 121.241 126.258 122.83 125.086 124.002C123.914 125.175 122.324 125.833 120.667 125.833Z" fill="#7DDC6D"/>
</g>
<rect x="20" y="223" width="167" height="41" rx="12" fill="#7DDC6D"/>
<path d="M72 237.5C74.0253 237.5 75.6667 239.167 75.6667 241.5C75.6667 246.167 70.6667 248.833 69 249.833C67.6813 249.042 64.2773 247.209 62.912 244.167H66.044L66.6667 243.129L68.6667 246.463L70.044 244.167H72.3333V242.833H69.2893L68.6667 243.871L66.6667 240.537L65.2893 242.833H62.4733C62.3827 242.409 62.3333 241.964 62.3333 241.5C62.3333 239.167 64 237.5 66 237.5C67.24 237.5 68.3333 238.167 69 238.833C69.6667 238.167 70.76 237.5 72 237.5Z" fill="white"/>
<path d="M86.1186 249V238.818H89.8473C90.5698 238.818 91.1681 238.937 91.642 239.176C92.116 239.411 92.4706 239.731 92.706 240.136C92.9413 240.537 93.0589 240.989 93.0589 241.493C93.0589 241.917 92.9811 242.275 92.8253 242.567C92.6695 242.855 92.4607 243.087 92.1989 243.263C91.9403 243.435 91.6553 243.561 91.3438 243.641V243.74C91.6818 243.757 92.0116 243.866 92.3331 244.068C92.6579 244.267 92.9264 244.55 93.1385 244.918C93.3506 245.286 93.4567 245.734 93.4567 246.261C93.4567 246.781 93.334 247.248 93.0888 247.663C92.8468 248.074 92.4723 248.4 91.9652 248.642C91.4581 248.881 90.8101 249 90.0213 249H86.1186ZM87.6548 247.683H89.8722C90.608 247.683 91.1349 247.54 91.4531 247.255C91.7713 246.97 91.9304 246.614 91.9304 246.186C91.9304 245.865 91.8492 245.57 91.6868 245.301C91.5244 245.033 91.2924 244.819 90.9908 244.66C90.6925 244.501 90.3378 244.421 89.9268 244.421H87.6548V247.683ZM87.6548 243.223H89.7131C90.0578 243.223 90.3677 243.157 90.6428 243.024C90.9212 242.892 91.1416 242.706 91.304 242.467C91.4697 242.225 91.5526 241.94 91.5526 241.612C91.5526 241.191 91.4051 240.838 91.1101 240.553C90.8151 240.268 90.3627 240.126 89.7528 240.126H87.6548V243.223ZM96.2781 243.989H98.4954C99.43 243.989 100.149 244.221 100.653 244.685C101.157 245.149 101.409 245.747 101.409 246.479C101.409 246.957 101.296 247.386 101.071 247.767C100.845 248.148 100.516 248.45 100.081 248.672C99.6471 248.891 99.1185 249 98.4954 249H95.1594V241.364H96.6161V247.717H98.4954C98.9229 247.717 99.2743 247.606 99.5494 247.384C99.8245 247.159 99.962 246.872 99.962 246.524C99.962 246.156 99.8245 245.856 99.5494 245.624C99.2743 245.389 98.9229 245.271 98.4954 245.271H96.2781V243.989ZM102.493 249V241.364H103.979V249H102.493ZM109.191 249.154C108.451 249.154 107.815 248.987 107.281 248.652C106.751 248.314 106.343 247.848 106.058 247.255C105.773 246.662 105.631 245.982 105.631 245.217C105.631 244.441 105.777 243.757 106.068 243.163C106.36 242.567 106.771 242.101 107.301 241.766C107.832 241.432 108.456 241.264 109.176 241.264C109.756 241.264 110.273 241.372 110.727 241.587C111.181 241.799 111.547 242.098 111.825 242.482C112.107 242.867 112.275 243.316 112.328 243.83H110.881C110.801 243.472 110.619 243.163 110.334 242.905C110.052 242.646 109.674 242.517 109.2 242.517C108.786 242.517 108.423 242.626 108.112 242.845C107.803 243.061 107.563 243.369 107.391 243.77C107.218 244.168 107.132 244.638 107.132 245.182C107.132 245.739 107.217 246.219 107.386 246.624C107.555 247.028 107.794 247.341 108.102 247.563C108.413 247.785 108.78 247.896 109.2 247.896C109.482 247.896 109.737 247.845 109.966 247.742C110.198 247.636 110.392 247.485 110.548 247.29C110.707 247.094 110.818 246.859 110.881 246.584H112.328C112.275 247.078 112.114 247.518 111.845 247.906C111.577 248.294 111.217 248.599 110.767 248.821C110.319 249.043 109.794 249.154 109.191 249.154ZM117.134 249.154C116.418 249.154 115.793 248.99 115.26 248.662C114.726 248.334 114.312 247.875 114.017 247.285C113.722 246.695 113.574 246.005 113.574 245.217C113.574 244.424 113.722 243.732 114.017 243.138C114.312 242.545 114.726 242.085 115.26 241.756C115.793 241.428 116.418 241.264 117.134 241.264C117.85 241.264 118.475 241.428 119.008 241.756C119.542 242.085 119.956 242.545 120.251 243.138C120.546 243.732 120.694 244.424 120.694 245.217C120.694 246.005 120.546 246.695 120.251 247.285C119.956 247.875 119.542 248.334 119.008 248.662C118.475 248.99 117.85 249.154 117.134 249.154ZM117.139 247.906C117.603 247.906 117.987 247.784 118.292 247.538C118.597 247.293 118.823 246.967 118.968 246.559C119.118 246.151 119.192 245.702 119.192 245.212C119.192 244.724 119.118 244.277 118.968 243.869C118.823 243.458 118.597 243.129 118.292 242.88C117.987 242.631 117.603 242.507 117.139 242.507C116.672 242.507 116.284 242.631 115.975 242.88C115.671 243.129 115.444 243.458 115.294 243.869C115.149 244.277 115.076 244.724 115.076 245.212C115.076 245.702 115.149 246.151 115.294 246.559C115.444 246.967 115.671 247.293 115.975 247.538C116.284 247.784 116.672 247.906 117.139 247.906ZM122.353 249V241.364H123.839V244.565H124.555L127.076 241.364H128.915L125.957 245.077L128.95 249H127.106L124.804 245.947H123.839V249H122.353ZM133.007 249.154C132.291 249.154 131.666 248.99 131.133 248.662C130.599 248.334 130.185 247.875 129.89 247.285C129.595 246.695 129.447 246.005 129.447 245.217C129.447 244.424 129.595 243.732 129.89 243.138C130.185 242.545 130.599 242.085 131.133 241.756C131.666 241.428 132.291 241.264 133.007 241.264C133.723 241.264 134.348 241.428 134.881 241.756C135.415 242.085 135.829 242.545 136.124 243.138C136.419 243.732 136.567 244.424 136.567 245.217C136.567 246.005 136.419 246.695 136.124 247.285C135.829 247.875 135.415 248.334 134.881 248.662C134.348 248.99 133.723 249.154 133.007 249.154ZM133.012 247.906C133.476 247.906 133.86 247.784 134.165 247.538C134.47 247.293 134.696 246.967 134.841 246.559C134.991 246.151 135.065 245.702 135.065 245.212C135.065 244.724 134.991 244.277 134.841 243.869C134.696 243.458 134.47 243.129 134.165 242.88C133.86 242.631 133.476 242.507 133.012 242.507C132.545 242.507 132.157 242.631 131.849 242.88C131.544 243.129 131.317 243.458 131.167 243.869C131.022 244.277 130.949 244.724 130.949 245.212C130.949 245.702 131.022 246.151 131.167 246.559C131.317 246.967 131.544 247.293 131.849 247.538C132.157 247.784 132.545 247.906 133.012 247.906ZM141.517 249.154C140.765 249.154 140.117 248.993 139.573 248.672C139.033 248.347 138.615 247.891 138.32 247.305C138.029 246.715 137.883 246.024 137.883 245.232C137.883 244.449 138.029 243.76 138.32 243.163C138.615 242.567 139.026 242.101 139.553 241.766C140.084 241.432 140.703 241.264 141.413 241.264C141.844 241.264 142.261 241.335 142.665 241.478C143.07 241.621 143.433 241.844 143.754 242.149C144.076 242.454 144.329 242.85 144.515 243.337C144.701 243.821 144.793 244.41 144.793 245.102V245.629H138.723V244.516H143.337C143.337 244.125 143.257 243.778 143.098 243.477C142.939 243.172 142.715 242.931 142.427 242.756C142.142 242.58 141.807 242.492 141.423 242.492C141.005 242.492 140.64 242.595 140.329 242.8C140.021 243.003 139.782 243.268 139.613 243.596C139.447 243.921 139.364 244.274 139.364 244.655V245.525C139.364 246.035 139.454 246.469 139.633 246.827C139.815 247.185 140.069 247.459 140.393 247.648C140.718 247.833 141.098 247.926 141.532 247.926C141.814 247.926 142.071 247.886 142.303 247.807C142.535 247.724 142.735 247.601 142.904 247.439C143.073 247.277 143.202 247.076 143.292 246.837L144.699 247.091C144.586 247.505 144.384 247.868 144.092 248.18C143.804 248.488 143.441 248.728 143.004 248.901C142.569 249.07 142.074 249.154 141.517 249.154Z" fill="white"/>
</svg>
