<svg width="207" height="280" viewBox="0 0 207 280" fill="none" xmlns="http://www.w3.org/2000/svg">
<rect width="207" height="280" rx="12" fill="#FFD000" fill-opacity="0.1"/>
<path d="M23.3423 34.1392C22.6595 34.1392 22.0496 34.0215 21.5127 33.7862C20.9791 33.5509 20.5565 33.2244 20.245 32.8068C19.9367 32.3859 19.771 31.8987 19.7478 31.3452H21.3089C21.3288 31.6468 21.4299 31.9086 21.6121 32.1307C21.7978 32.3494 22.0397 32.5185 22.338 32.6378C22.6363 32.7571 22.9677 32.8168 23.3323 32.8168C23.7334 32.8168 24.088 32.7472 24.3962 32.608C24.7078 32.4687 24.9514 32.2749 25.1271 32.0263C25.3027 31.7744 25.3906 31.4844 25.3906 31.1562C25.3906 30.8149 25.3027 30.5149 25.1271 30.2564C24.9547 29.9946 24.7012 29.7891 24.3664 29.6399C24.035 29.4908 23.6339 29.4162 23.1633 29.4162H22.3032V28.1634H23.1633C23.5411 28.1634 23.8726 28.0954 24.1576 27.9595C24.446 27.8236 24.6713 27.6347 24.8337 27.3928C24.9961 27.1475 25.0773 26.8608 25.0773 26.5327C25.0773 26.2178 25.0061 25.9444 24.8636 25.7124C24.7244 25.477 24.5255 25.2931 24.267 25.1605C24.0118 25.0279 23.7102 24.9616 23.3621 24.9616C23.0307 24.9616 22.7208 25.023 22.4325 25.1456C22.1474 25.2649 21.9154 25.4373 21.7364 25.6626C21.5575 25.8847 21.4613 26.1515 21.4481 26.4631H19.9616C19.9782 25.9129 20.1406 25.429 20.4488 25.0114C20.7604 24.5937 21.1713 24.2673 21.6818 24.032C22.1922 23.7966 22.7589 23.679 23.382 23.679C24.035 23.679 24.5984 23.8066 25.0724 24.0618C25.5496 24.3137 25.9175 24.6501 26.1761 25.071C26.4379 25.492 26.5672 25.9527 26.5639 26.4531C26.5672 27.0232 26.4081 27.5071 26.0866 27.9048C25.7684 28.3026 25.3442 28.5694 24.8139 28.7053V28.7848C25.49 28.8875 26.0137 29.156 26.3849 29.5902C26.7594 30.0244 26.945 30.563 26.9417 31.206C26.945 31.7661 26.7892 32.2682 26.4744 32.7124C26.1628 33.1565 25.7369 33.5062 25.1967 33.7614C24.6564 34.0133 24.0383 34.1392 23.3423 34.1392ZM28.0951 36.2024V32.7124H28.7166C28.8756 32.5665 29.0099 32.3925 29.1193 32.1903C29.2319 31.9882 29.3264 31.7479 29.4026 31.4695C29.4822 31.1911 29.5485 30.8662 29.6015 30.495C29.6545 30.1205 29.7009 29.6929 29.7407 29.2124L29.9793 26.3636H35.1697V32.7124H36.343V36.2024H34.8913V34H29.5667V36.2024H28.0951ZM30.3075 32.7124H33.718V27.6364H31.3117L31.1526 29.2124C31.0764 30.0144 30.9803 30.7105 30.8643 31.3004C30.7483 31.8871 30.5627 32.3577 30.3075 32.7124ZM41.0125 34.1541C40.2966 34.1541 39.6719 33.9901 39.1383 33.6619C38.6046 33.3338 38.1903 32.8748 37.8954 32.2848C37.6004 31.6948 37.4529 31.0054 37.4529 30.2166C37.4529 29.4245 37.6004 28.7318 37.8954 28.1385C38.1903 27.5452 38.6046 27.0845 39.1383 26.7564C39.6719 26.4283 40.2966 26.2642 41.0125 26.2642C41.7284 26.2642 42.3532 26.4283 42.8868 26.7564C43.4204 27.0845 43.8347 27.5452 44.1297 28.1385C44.4247 28.7318 44.5722 29.4245 44.5722 30.2166C44.5722 31.0054 44.4247 31.6948 44.1297 32.2848C43.8347 32.8748 43.4204 33.3338 42.8868 33.6619C42.3532 33.9901 41.7284 34.1541 41.0125 34.1541ZM41.0175 32.9062C41.4815 32.9062 41.866 32.7836 42.1709 32.5384C42.4758 32.2931 42.7012 31.9666 42.8471 31.5589C42.9962 31.1513 43.0708 30.7022 43.0708 30.2116C43.0708 29.7244 42.9962 29.277 42.8471 28.8693C42.7012 28.4583 42.4758 28.1286 42.1709 27.88C41.866 27.6314 41.4815 27.5071 41.0175 27.5071C40.5502 27.5071 40.1624 27.6314 39.8542 27.88C39.5492 28.1286 39.3222 28.4583 39.1731 28.8693C39.0272 29.277 38.9543 29.7244 38.9543 30.2116C38.9543 30.7022 39.0272 31.1513 39.1731 31.5589C39.3222 31.9666 39.5492 32.2931 39.8542 32.5384C40.1624 32.7836 40.5502 32.9062 41.0175 32.9062ZM46.2315 36.8636V26.3636H47.6832V27.6016H47.8075C47.8936 27.4425 48.0179 27.2585 48.1803 27.0497C48.3427 26.8409 48.5681 26.6586 48.8565 26.5028C49.1448 26.3438 49.526 26.2642 49.9999 26.2642C50.6164 26.2642 51.1666 26.42 51.6505 26.7315C52.1344 27.0431 52.5139 27.4922 52.789 28.0788C53.0674 28.6655 53.2066 29.3714 53.2066 30.1967C53.2066 31.022 53.0691 31.7296 52.794 32.3196C52.5189 32.9062 52.141 33.3587 51.6604 33.6768C51.1799 33.9917 50.6313 34.1491 50.0148 34.1491C49.5508 34.1491 49.1713 34.0713 48.8764 33.9155C48.5847 33.7597 48.356 33.5774 48.1903 33.3686C48.0246 33.1598 47.897 32.9742 47.8075 32.8118H47.718V36.8636H46.2315ZM47.6881 30.1818C47.6881 30.7187 47.766 31.1894 47.9218 31.5938C48.0776 31.9981 48.303 32.3146 48.5979 32.5433C48.8929 32.7687 49.2542 32.8814 49.6818 32.8814C50.1259 32.8814 50.4971 32.7637 50.7954 32.5284C51.0937 32.2898 51.3191 31.9666 51.4715 31.5589C51.6273 31.1513 51.7052 30.6922 51.7052 30.1818C51.7052 29.678 51.629 29.2256 51.4765 28.8246C51.3273 28.4235 51.102 28.107 50.8004 27.875C50.5021 27.643 50.1292 27.527 49.6818 27.527C49.2509 27.527 48.8863 27.638 48.588 27.8601C48.293 28.0821 48.0693 28.392 47.9168 28.7898C47.7644 29.1875 47.6881 29.6515 47.6881 30.1818ZM58.0887 34.1541C57.3728 34.1541 56.748 33.9901 56.2144 33.6619C55.6808 33.3338 55.2665 32.8748 54.9715 32.2848C54.6765 31.6948 54.5291 31.0054 54.5291 30.2166C54.5291 29.4245 54.6765 28.7318 54.9715 28.1385C55.2665 27.5452 55.6808 27.0845 56.2144 26.7564C56.748 26.4283 57.3728 26.2642 58.0887 26.2642C58.8046 26.2642 59.4294 26.4283 59.963 26.7564C60.4966 27.0845 60.9109 27.5452 61.2059 28.1385C61.5009 28.7318 61.6484 29.4245 61.6484 30.2166C61.6484 31.0054 61.5009 31.6948 61.2059 32.2848C60.9109 32.8748 60.4966 33.3338 59.963 33.6619C59.4294 33.9901 58.8046 34.1541 58.0887 34.1541ZM58.0937 32.9062C58.5577 32.9062 58.9422 32.7836 59.2471 32.5384C59.552 32.2931 59.7774 31.9666 59.9232 31.5589C60.0724 31.1513 60.147 30.7022 60.147 30.2116C60.147 29.7244 60.0724 29.277 59.9232 28.8693C59.7774 28.4583 59.552 28.1286 59.2471 27.88C58.9422 27.6314 58.5577 27.5071 58.0937 27.5071C57.6264 27.5071 57.2386 27.6314 56.9303 27.88C56.6254 28.1286 56.3984 28.4583 56.2492 28.8693C56.1034 29.277 56.0305 29.7244 56.0305 30.2116C56.0305 30.7022 56.1034 31.1513 56.2492 31.5589C56.3984 31.9666 56.6254 32.2931 56.9303 32.5384C57.2386 32.7836 57.6264 32.9062 58.0937 32.9062ZM63.3076 34V26.3636H66.4745C67.3363 26.3636 68.0191 26.5476 68.5228 26.9155C69.0266 27.2801 69.2785 27.7756 69.2785 28.402C69.2785 28.8494 69.136 29.2041 68.851 29.4659C68.5659 29.7277 68.1881 29.9034 67.7174 29.9929C68.0588 30.0327 68.372 30.1354 68.6571 30.3011C68.9421 30.4635 69.1708 30.6823 69.3432 30.9574C69.5188 31.2325 69.6066 31.5606 69.6066 31.9418C69.6066 32.3461 69.5022 32.7041 69.2934 33.0156C69.0846 33.3239 68.7814 33.5658 68.3836 33.7415C67.9892 33.9138 67.5136 34 66.9568 34H63.3076ZM64.7047 32.7571H66.9568C67.3247 32.7571 67.613 32.6693 67.8218 32.4936C68.0307 32.3179 68.1351 32.0793 68.1351 31.7777C68.1351 31.4231 68.0307 31.1446 67.8218 30.9425C67.613 30.737 67.3247 30.6342 66.9568 30.6342H64.7047V32.7571ZM64.7047 29.5455H66.4895C66.7679 29.5455 67.0065 29.5057 67.2054 29.4261C67.4075 29.3466 67.5617 29.2339 67.6677 29.0881C67.7771 28.9389 67.8318 28.7633 67.8318 28.5611C67.8318 28.2661 67.7108 28.0357 67.4689 27.87C67.2269 27.7043 66.8955 27.6214 66.4745 27.6214H64.7047V29.5455ZM72.3559 28.9886H74.5733C75.5079 28.9886 76.2271 29.2206 76.7309 29.6847C77.2347 30.1487 77.4866 30.7469 77.4866 31.4794C77.4866 31.9567 77.3739 32.3859 77.1485 32.767C76.9232 33.1482 76.5934 33.4498 76.1592 33.6719C75.725 33.8906 75.1964 34 74.5733 34H71.2373V26.3636H72.694V32.7173H74.5733C75.0008 32.7173 75.3521 32.6063 75.6272 32.3842C75.9023 32.1589 76.0399 31.8722 76.0399 31.5241C76.0399 31.1562 75.9023 30.8563 75.6272 30.6243C75.3521 30.389 75.0008 30.2713 74.5733 30.2713H72.3559V28.9886ZM82.4445 34.1541C81.6922 34.1541 81.0442 33.9934 80.5006 33.6719C79.9604 33.3471 79.5428 32.8913 79.2478 32.3047C78.9561 31.7147 78.8103 31.0237 78.8103 30.2315C78.8103 29.4493 78.9561 28.7599 79.2478 28.1634C79.5428 27.5668 79.9538 27.1011 80.4808 26.7663C81.0111 26.4316 81.6309 26.2642 82.3401 26.2642C82.771 26.2642 83.1886 26.3355 83.593 26.478C83.9973 26.6205 84.3603 26.8442 84.6818 27.1491C85.0032 27.4541 85.2568 27.8501 85.4424 28.3374C85.628 28.8213 85.7208 29.4096 85.7208 30.1023V30.6293H79.6505V29.5156H84.2641C84.2641 29.1245 84.1846 28.7782 84.0255 28.4766C83.8664 28.1716 83.6427 27.9313 83.3543 27.7557C83.0693 27.58 82.7345 27.4922 82.3501 27.4922C81.9325 27.4922 81.5679 27.5949 81.2563 27.8004C80.9481 28.0026 80.7095 28.2678 80.5404 28.5959C80.3747 28.9207 80.2918 29.2737 80.2918 29.6548V30.5249C80.2918 31.0353 80.3813 31.4695 80.5603 31.8274C80.7426 32.1854 80.9961 32.4588 81.321 32.6477C81.6458 32.8333 82.0253 32.9261 82.4595 32.9261C82.7412 32.9261 82.998 32.8864 83.23 32.8068C83.4621 32.724 83.6626 32.6013 83.8316 32.4389C84.0006 32.2765 84.1299 32.076 84.2194 31.8374L85.6264 32.0909C85.5137 32.5052 85.3115 32.8681 85.0198 33.1797C84.7315 33.4879 84.3685 33.7282 83.931 33.9006C83.4969 34.0696 83.0014 34.1541 82.4445 34.1541ZM94.2918 34.1541C93.5527 34.1541 92.9164 33.9867 92.3827 33.652C91.8524 33.3139 91.4448 32.8482 91.1597 32.255C90.8747 31.6617 90.7322 30.9822 90.7322 30.2166C90.7322 29.4411 90.878 28.7566 91.1697 28.1634C91.4613 27.5668 91.8723 27.1011 92.4026 26.7663C92.9329 26.4316 93.5577 26.2642 94.2769 26.2642C94.8569 26.2642 95.374 26.3719 95.8281 26.5874C96.2821 26.7995 96.6484 27.0978 96.9268 27.4822C97.2085 27.8667 97.3759 28.3158 97.4289 28.8295H95.9822C95.9026 28.4716 95.7203 28.1634 95.4353 27.9048C95.1536 27.6463 94.7757 27.517 94.3018 27.517C93.8875 27.517 93.5246 27.6264 93.213 27.8452C92.9048 28.0606 92.6645 28.3688 92.4921 28.7699C92.3198 29.1676 92.2336 29.6383 92.2336 30.1818C92.2336 30.7386 92.3181 31.2192 92.4871 31.6236C92.6562 32.0279 92.8948 32.3411 93.2031 32.5632C93.5146 32.7853 93.8809 32.8963 94.3018 32.8963C94.5835 32.8963 94.8387 32.8449 95.0674 32.7422C95.2994 32.6361 95.4933 32.4853 95.6491 32.2898C95.8082 32.0942 95.9192 31.8589 95.9822 31.5838H97.4289C97.3759 32.0777 97.2151 32.5185 96.9467 32.9062C96.6782 33.294 96.3186 33.599 95.8678 33.821C95.4204 34.0431 94.8951 34.1541 94.2918 34.1541ZM99.0186 34V26.3636H105.248V34H103.791V27.6463H100.465V34H99.0186ZM107.235 36.8636V26.3636H108.687V27.6016H108.811C108.898 27.4425 109.022 27.2585 109.184 27.0497C109.347 26.8409 109.572 26.6586 109.86 26.5028C110.149 26.3438 110.53 26.2642 111.004 26.2642C111.62 26.2642 112.171 26.42 112.654 26.7315C113.138 27.0431 113.518 27.4922 113.793 28.0788C114.071 28.6655 114.211 29.3714 114.211 30.1967C114.211 31.022 114.073 31.7296 113.798 32.3196C113.523 32.9062 113.145 33.3587 112.664 33.6768C112.184 33.9917 111.635 34.1491 111.019 34.1491C110.555 34.1491 110.175 34.0713 109.88 33.9155C109.589 33.7597 109.36 33.5774 109.194 33.3686C109.028 33.1598 108.901 32.9742 108.811 32.8118H108.722V36.8636H107.235ZM108.692 30.1818C108.692 30.7187 108.77 31.1894 108.926 31.5938C109.081 31.9981 109.307 32.3146 109.602 32.5433C109.897 32.7687 110.258 32.8814 110.686 32.8814C111.13 32.8814 111.501 32.7637 111.799 32.5284C112.098 32.2898 112.323 31.9666 112.475 31.5589C112.631 31.1513 112.709 30.6922 112.709 30.1818C112.709 29.678 112.633 29.2256 112.48 28.8246C112.331 28.4235 112.106 28.107 111.804 27.875C111.506 27.643 111.133 27.527 110.686 27.527C110.255 27.527 109.89 27.638 109.592 27.8601C109.297 28.0821 109.073 28.392 108.921 28.7898C108.768 29.1875 108.692 29.6515 108.692 30.1818ZM117.333 31.9169L120.698 26.3636H122.299V34H120.843V28.4418L117.492 34H115.876V26.3636H117.333V31.9169ZM129.473 29.5405V30.8281H125.337V29.5405H129.473ZM125.755 26.3636V34H124.298V26.3636H125.755ZM130.512 26.3636V34H129.061V26.3636H130.512ZM131.554 27.6463V26.3636H137.997V27.6463H135.506V34H134.055V27.6463H131.554ZM141.436 34.169C140.952 34.169 140.515 34.0795 140.124 33.9006C139.733 33.7183 139.423 33.4548 139.194 33.1101C138.969 32.7654 138.856 32.3428 138.856 31.8423C138.856 31.4115 138.939 31.0568 139.105 30.7784C139.27 30.5 139.494 30.2796 139.776 30.1172C140.057 29.9548 140.372 29.8321 140.72 29.7493C141.068 29.6664 141.423 29.6035 141.784 29.5604C142.242 29.5073 142.613 29.4643 142.898 29.4311C143.183 29.3946 143.39 29.3366 143.519 29.2571C143.649 29.1776 143.713 29.0483 143.713 28.8693V28.8345C143.713 28.4003 143.591 28.0639 143.345 27.8253C143.103 27.5866 142.742 27.4673 142.261 27.4673C141.761 27.4673 141.367 27.5784 141.078 27.8004C140.793 28.0192 140.596 28.2628 140.487 28.5312L139.09 28.2131C139.255 27.7491 139.497 27.3745 139.815 27.0895C140.137 26.8011 140.507 26.5923 140.924 26.4631C141.342 26.3305 141.781 26.2642 142.242 26.2642C142.547 26.2642 142.87 26.3007 143.211 26.3736C143.556 26.4432 143.877 26.5724 144.176 26.7614C144.477 26.9503 144.724 27.2204 144.916 27.5717C145.109 27.9197 145.205 28.3722 145.205 28.929V34H143.753V32.956H143.693C143.597 33.1482 143.453 33.3371 143.261 33.5227C143.069 33.7083 142.822 33.8625 142.52 33.9851C142.218 34.1077 141.857 34.169 141.436 34.169ZM141.759 32.9759C142.17 32.9759 142.522 32.8946 142.813 32.7322C143.108 32.5698 143.332 32.3577 143.484 32.0959C143.64 31.8307 143.718 31.5473 143.718 31.2457V30.2614C143.665 30.3144 143.562 30.3641 143.41 30.4105C143.261 30.4536 143.09 30.4917 142.898 30.5249C142.706 30.5547 142.518 30.5829 142.336 30.6094C142.154 30.6326 142.001 30.6525 141.879 30.669C141.59 30.7055 141.327 30.7668 141.088 30.853C140.853 30.9392 140.664 31.0634 140.521 31.2259C140.382 31.3849 140.313 31.5971 140.313 31.8622C140.313 32.2301 140.449 32.5085 140.72 32.6974C140.992 32.883 141.338 32.9759 141.759 32.9759Z" fill="#202220"/>
<g opacity="0.7">
<path d="M103 171.666C79.9874 171.666 61.3333 153.012 61.3333 130C61.3333 106.987 79.9874 88.333 103 88.333C126.012 88.333 144.667 106.987 144.667 130C144.667 153.012 126.012 171.666 103 171.666ZM103 163.333C111.84 163.333 120.319 159.821 126.57 153.57C132.821 147.319 136.333 138.84 136.333 130C136.333 121.159 132.821 112.681 126.57 106.429C120.319 100.178 111.84 96.6663 103 96.6663C94.1594 96.6663 85.6809 100.178 79.4297 106.429C73.1785 112.681 69.6666 121.159 69.6666 130C69.6666 138.84 73.1785 147.319 79.4297 153.57C85.6809 159.821 94.1594 163.333 103 163.333V163.333ZM86.3333 138.333H119.667V146.666H86.3333V138.333ZM86.3333 125.833C84.6756 125.833 83.0859 125.175 81.9138 124.002C80.7417 122.83 80.0833 121.241 80.0833 119.583C80.0833 117.925 80.7417 116.336 81.9138 115.164C83.0859 113.991 84.6756 113.333 86.3333 113.333C87.9909 113.333 89.5806 113.991 90.7527 115.164C91.9248 116.336 92.5833 117.925 92.5833 119.583C92.5833 121.241 91.9248 122.83 90.7527 124.002C89.5806 125.175 87.9909 125.833 86.3333 125.833ZM119.667 125.833C118.009 125.833 116.419 125.175 115.247 124.002C114.075 122.83 113.417 121.241 113.417 119.583C113.417 117.925 114.075 116.336 115.247 115.164C116.419 113.991 118.009 113.333 119.667 113.333C121.324 113.333 122.914 113.991 124.086 115.164C125.258 116.336 125.917 117.925 125.917 119.583C125.917 121.241 125.258 122.83 124.086 124.002C122.914 125.175 121.324 125.833 119.667 125.833Z" fill="#FFD000"/>
</g>
<rect x="20" y="223" width="167" height="41" rx="12" fill="#FFDD45"/>
<path d="M71.9999 237.5C74.0253 237.5 75.6666 239.167 75.6666 241.5C75.6666 246.167 70.6666 248.833 68.9999 249.833C67.6813 249.042 64.2773 247.209 62.9119 244.167H66.0439L66.6666 243.129L68.6666 246.463L70.0439 244.167H72.3333V242.833H69.2893L68.6666 243.871L66.6666 240.537L65.2893 242.833H62.4733C62.3826 242.409 62.3333 241.964 62.3333 241.5C62.3333 239.167 63.9999 237.5 65.9999 237.5C67.2399 237.5 68.3333 238.167 68.9999 238.833C69.6666 238.167 70.7599 237.5 71.9999 237.5Z" fill="white"/>
<path d="M94.5753 242.129H93.0241C92.9645 241.798 92.8535 241.506 92.6911 241.254C92.5286 241.002 92.3298 240.789 92.0945 240.613C91.8591 240.437 91.5956 240.305 91.304 240.215C91.0156 240.126 90.709 240.081 90.3842 240.081C89.7976 240.081 89.2723 240.228 88.8082 240.523C88.3475 240.818 87.983 241.251 87.7145 241.821C87.4493 242.391 87.3168 243.087 87.3168 243.909C87.3168 244.738 87.4493 245.437 87.7145 246.007C87.983 246.577 88.3492 247.008 88.8132 247.3C89.2772 247.591 89.7992 247.737 90.3793 247.737C90.7008 247.737 91.0057 247.694 91.294 247.608C91.5857 247.518 91.8492 247.388 92.0845 247.215C92.3198 247.043 92.5187 246.832 92.6811 246.584C92.8468 246.332 92.9612 246.044 93.0241 245.719L94.5753 245.724C94.4924 246.224 94.3317 246.685 94.093 247.106C93.8577 247.523 93.5545 247.885 93.1832 248.19C92.8153 248.491 92.3944 248.725 91.9205 248.891C91.4465 249.056 90.9295 249.139 90.3693 249.139C89.4877 249.139 88.7022 248.93 88.0128 248.513C87.3234 248.092 86.7798 247.49 86.3821 246.708C85.9877 245.926 85.7905 244.993 85.7905 243.909C85.7905 242.822 85.9893 241.889 86.3871 241.11C86.7848 240.328 87.3284 239.728 88.0178 239.31C88.7071 238.889 89.491 238.679 90.3693 238.679C90.9096 238.679 91.4134 238.757 91.8807 238.913C92.3513 239.065 92.7739 239.29 93.1484 239.589C93.523 239.884 93.8329 240.245 94.0781 240.673C94.3234 241.097 94.4891 241.582 94.5753 242.129ZM96.2942 251.864V241.364H97.7459V242.602H97.8702C97.9564 242.442 98.0807 242.259 98.2431 242.05C98.4055 241.841 98.6309 241.659 98.9192 241.503C99.2076 241.344 99.5887 241.264 100.063 241.264C100.679 241.264 101.229 241.42 101.713 241.732C102.197 242.043 102.577 242.492 102.852 243.079C103.13 243.665 103.269 244.371 103.269 245.197C103.269 246.022 103.132 246.73 102.857 247.32C102.582 247.906 102.204 248.359 101.723 248.677C101.243 248.992 100.694 249.149 100.078 249.149C99.6136 249.149 99.2341 249.071 98.9391 248.915C98.6474 248.76 98.4187 248.577 98.253 248.369C98.0873 248.16 97.9597 247.974 97.8702 247.812H97.7807V251.864H96.2942ZM97.7509 245.182C97.7509 245.719 97.8288 246.189 97.9846 246.594C98.1403 246.998 98.3657 247.315 98.6607 247.543C98.9557 247.769 99.3169 247.881 99.7445 247.881C100.189 247.881 100.56 247.764 100.858 247.528C101.156 247.29 101.382 246.967 101.534 246.559C101.69 246.151 101.768 245.692 101.768 245.182C101.768 244.678 101.692 244.226 101.539 243.825C101.39 243.424 101.165 243.107 100.863 242.875C100.565 242.643 100.192 242.527 99.7445 242.527C99.3136 242.527 98.949 242.638 98.6507 242.86C98.3558 243.082 98.132 243.392 97.9796 243.79C97.8271 244.187 97.7509 244.652 97.7509 245.182ZM108.226 249.154C107.474 249.154 106.826 248.993 106.282 248.672C105.742 248.347 105.324 247.891 105.029 247.305C104.738 246.715 104.592 246.024 104.592 245.232C104.592 244.449 104.738 243.76 105.029 243.163C105.324 242.567 105.735 242.101 106.262 241.766C106.793 241.432 107.412 241.264 108.122 241.264C108.552 241.264 108.97 241.335 109.374 241.478C109.779 241.621 110.142 241.844 110.463 242.149C110.785 242.454 111.038 242.85 111.224 243.337C111.41 243.821 111.502 244.41 111.502 245.102V245.629H105.432V244.516H110.046C110.046 244.125 109.966 243.778 109.807 243.477C109.648 243.172 109.424 242.931 109.136 242.756C108.851 242.58 108.516 242.492 108.132 242.492C107.714 242.492 107.349 242.595 107.038 242.8C106.73 243.003 106.491 243.268 106.322 243.596C106.156 243.921 106.073 244.274 106.073 244.655V245.525C106.073 246.035 106.163 246.469 106.342 246.827C106.524 247.185 106.778 247.459 107.102 247.648C107.427 247.833 107.807 247.926 108.241 247.926C108.523 247.926 108.78 247.886 109.012 247.807C109.244 247.724 109.444 247.601 109.613 247.439C109.782 247.277 109.911 247.076 110.001 246.837L111.408 247.091C111.295 247.505 111.093 247.868 110.801 248.18C110.513 248.488 110.15 248.728 109.713 248.901C109.278 249.07 108.783 249.154 108.226 249.154ZM112.406 251.202V247.712H113.027C113.186 247.567 113.321 247.393 113.43 247.19C113.543 246.988 113.637 246.748 113.713 246.469C113.793 246.191 113.859 245.866 113.912 245.495C113.965 245.121 114.012 244.693 114.051 244.212L114.29 241.364H119.48V247.712H120.654V251.202H119.202V249H113.877V251.202H112.406ZM114.618 247.712H118.029V242.636H115.623L115.463 244.212C115.387 245.014 115.291 245.71 115.175 246.3C115.059 246.887 114.873 247.358 114.618 247.712ZM127.282 244.54V245.828H123.146V244.54H127.282ZM123.563 241.364V249H122.107V241.364H123.563ZM128.321 241.364V249H126.869V241.364H128.321ZM133.601 249.154C132.849 249.154 132.201 248.993 131.657 248.672C131.117 248.347 130.699 247.891 130.404 247.305C130.113 246.715 129.967 246.024 129.967 245.232C129.967 244.449 130.113 243.76 130.404 243.163C130.699 242.567 131.11 242.101 131.637 241.766C132.168 241.432 132.787 241.264 133.497 241.264C133.927 241.264 134.345 241.335 134.749 241.478C135.154 241.621 135.517 241.844 135.838 242.149C136.16 242.454 136.413 242.85 136.599 243.337C136.785 243.821 136.877 244.41 136.877 245.102V245.629H130.807V244.516H135.421C135.421 244.125 135.341 243.778 135.182 243.477C135.023 243.172 134.799 242.931 134.511 242.756C134.226 242.58 133.891 242.492 133.507 242.492C133.089 242.492 132.724 242.595 132.413 242.8C132.105 243.003 131.866 243.268 131.697 243.596C131.531 243.921 131.448 244.274 131.448 244.655V245.525C131.448 246.035 131.538 246.469 131.717 246.827C131.899 247.185 132.153 247.459 132.477 247.648C132.802 247.833 133.182 247.926 133.616 247.926C133.898 247.926 134.155 247.886 134.387 247.807C134.619 247.724 134.819 247.601 134.988 247.439C135.157 247.277 135.286 247.076 135.376 246.837L136.783 247.091C136.67 247.505 136.468 247.868 136.176 248.18C135.888 248.488 135.525 248.728 135.088 248.901C134.653 249.07 134.158 249.154 133.601 249.154ZM141.818 249.154C141.065 249.154 140.417 248.993 139.874 248.672C139.334 248.347 138.916 247.891 138.621 247.305C138.329 246.715 138.184 246.024 138.184 245.232C138.184 244.449 138.329 243.76 138.621 243.163C138.916 242.567 139.327 242.101 139.854 241.766C140.384 241.432 141.004 241.264 141.713 241.264C142.144 241.264 142.562 241.335 142.966 241.478C143.371 241.621 143.734 241.844 144.055 242.149C144.377 242.454 144.63 242.85 144.816 243.337C145.001 243.821 145.094 244.41 145.094 245.102V245.629H139.024V244.516H143.637C143.637 244.125 143.558 243.778 143.399 243.477C143.24 243.172 143.016 242.931 142.728 242.756C142.443 242.58 142.108 242.492 141.723 242.492C141.306 242.492 140.941 242.595 140.63 242.8C140.321 243.003 140.083 243.268 139.914 243.596C139.748 243.921 139.665 244.274 139.665 244.655V245.525C139.665 246.035 139.755 246.469 139.934 246.827C140.116 247.185 140.369 247.459 140.694 247.648C141.019 247.833 141.399 247.926 141.833 247.926C142.114 247.926 142.371 247.886 142.603 247.807C142.835 247.724 143.036 247.601 143.205 247.439C143.374 247.277 143.503 247.076 143.593 246.837L145 247.091C144.887 247.505 144.685 247.868 144.393 248.18C144.105 248.488 143.742 248.728 143.304 248.901C142.87 249.07 142.375 249.154 141.818 249.154Z" fill="white"/>
</svg>
