<svg xmlns="http://www.w3.org/2000/svg" xmlns:xlink="http://www.w3.org/1999/xlink">
    <symbol id="logo" viewBox="0 0 200 64" fill="none">
        <path fill="#404240"
            d="M36.25 21.5c3.544 0 6.417 2.917 6.417 7 0 8.167-8.75 12.833-11.667 14.583-2.308-1.384-8.265-4.593-10.654-9.916h5.481l1.09-1.816 3.5 5.834 2.41-4.018h4.006v-2.334h-5.327l-1.09 1.816-3.5-5.834-2.41 4.018h-4.928a11.146 11.146 0 0 1-.245-2.333c0-4.083 2.917-7 6.417-7 2.17 0 4.083 1.167 5.25 2.333 1.167-1.166 3.08-2.333 5.25-2.333Zm20.49 16.84c-4.533 0-6.887-1.653-7.06-4.96h3.24c.053.773.38 1.327.98 1.66.6.333 1.58.5 2.94.5 2.24 0 3.36-.573 3.36-1.72 0-.813-.62-1.293-1.86-1.44l-4.04-.5c-1.453-.16-2.513-.553-3.18-1.18-.667-.64-1-1.527-1-2.66 0-1.4.553-2.467 1.66-3.2 1.12-.747 2.747-1.12 4.88-1.12 4.147 0 6.347 1.513 6.6 4.54h-3.24c-.093-.627-.407-1.073-.94-1.34-.52-.28-1.347-.42-2.48-.42-2.08 0-3.12.487-3.12 1.46 0 .68.567 1.087 1.7 1.22l4.02.5c2.92.373 4.38 1.727 4.38 4.06 0 1.48-.587 2.62-1.76 3.42-1.173.787-2.867 1.18-5.08 1.18Zm16.869-11.22c1.893 0 3.286.453 4.18 1.36.906.907 1.36 2.313 1.36 4.22 0 1.933-.454 3.36-1.36 4.28-.894.907-2.287 1.36-4.18 1.36-2.254 0-3.774-.72-4.56-2.16v6.22h-3.36V27.46h3.36v1.78c.773-1.413 2.293-2.12 4.56-2.12Zm-1.06 8.6c1.16 0 1.986-.233 2.48-.7.506-.467.76-1.233.76-2.3 0-1.08-.247-1.84-.74-2.28-.48-.453-1.3-.68-2.46-.68-2.427 0-3.64.86-3.64 2.58V33c0 .853.313 1.52.94 2 .626.48 1.513.72 2.66.72Zm11.968-8.26v2.78c.88-2.08 2.327-3.12 4.34-3.12v3.4c-1.466 0-2.533.273-3.2.82-.666.547-1.046 1.507-1.14 2.88V38h-3.36V27.46h3.36Zm7.851-1.66c-.746 0-1.253-.107-1.52-.32-.266-.227-.4-.653-.4-1.28 0-.64.134-1.067.4-1.28.267-.227.774-.34 1.52-.34.787 0 1.314.113 1.58.34.267.213.4.64.4 1.28 0 .627-.14 1.053-.42 1.28-.266.213-.786.32-1.56.32Zm1.7 12.2h-3.36V27.46h3.36V38Zm9.861-10.88c1.467 0 2.513.333 3.14 1 .627.667.94 1.78.94 3.34V38h-3.36v-6.44c0-1.227-.767-1.84-2.3-1.84-1.627 0-2.453.853-2.48 2.56V38h-3.36V27.46h3.36v1.82c.387-.76.907-1.307 1.56-1.64.653-.347 1.487-.52 2.5-.52Zm14.647.34v2.64h-3.72v3.68c0 .653.14 1.133.42 1.44.294.293.76.44 1.4.44.574 0 1.207-.153 1.9-.46v2.6c-.626.36-1.446.54-2.46.54-1.613 0-2.786-.36-3.52-1.08-.733-.733-1.1-1.893-1.1-3.48V30.1h-1.9v-2.64h1.9v-2.64h3.36v2.64h3.72Z" />
        <path fill="#45A3FA"
            d="M124.289 38h-3.44V24.06h6.4c4.653 0 6.98 1.7 6.98 5.1 0 3.48-2.327 5.22-6.98 5.22h-2.96V38Zm0-11.12v4.66h2.98c1.226 0 2.12-.187 2.68-.56.56-.387.84-.993.84-1.82 0-.787-.28-1.36-.84-1.72-.56-.373-1.454-.56-2.68-.56h-2.98Zm19.889 6.3v-5.72h3.36V38h-3.36v-1.82c-.386.76-.906 1.313-1.56 1.66-.653.333-1.486.5-2.5.5-1.48 0-2.526-.327-3.14-.98-.626-.667-.94-1.787-.94-3.36v-6.54h3.36v6.44c0 1.227.767 1.84 2.3 1.84 1.627 0 2.454-.853 2.48-2.56Zm9.187 4.82h-3.36V22.8h3.36V38Zm7.341.34c-3.467 0-5.26-1.207-5.38-3.62h3.06c.08.84.92 1.26 2.52 1.26 1.387 0 2.08-.353 2.08-1.06 0-.24-.073-.42-.22-.54-.133-.133-.373-.227-.72-.28l-3.2-.6c-1.08-.2-1.873-.533-2.38-1-.507-.467-.76-1.1-.76-1.9 0-1.187.427-2.06 1.28-2.62.853-.573 2.193-.86 4.02-.86 3.2 0 4.88 1.153 5.04 3.46h-3.04c-.08-.4-.28-.687-.6-.86-.32-.173-.807-.26-1.46-.26-1.293 0-1.94.327-1.94.98 0 .36.327.6.98.72l3.1.58c1.107.2 1.92.547 2.44 1.04.533.48.8 1.133.8 1.96 0 1.227-.453 2.133-1.36 2.72-.907.587-2.327.88-4.26.88Zm20.28-5.66v.82h-9.78c.107.88.414 1.5.92 1.86.507.36 1.307.54 2.4.54 1.88 0 2.907-.407 3.08-1.22h3.18c-.226 2.44-2.333 3.66-6.32 3.66-2.28 0-3.953-.46-5.02-1.38-1.066-.92-1.6-2.36-1.6-4.32 0-1.893.527-3.287 1.58-4.18 1.067-.893 2.734-1.34 5-1.34 2.267 0 3.927.44 4.98 1.32 1.054.867 1.58 2.28 1.58 4.24Zm-6.54-3.12c-1.04 0-1.806.153-2.3.46-.48.307-.78.833-.9 1.58h6.36c-.026-.72-.293-1.24-.8-1.56-.493-.32-1.28-.48-2.36-.48Z" />
    </symbol>
    <symbol id="eye" viewBox="0 0 16 16" fill="none">
        <path fill="#E5E5E5"
            d="M8 2a7.336 7.336 0 0 1 7.213 6A7.336 7.336 0 0 1 .787 8 7.336 7.336 0 0 1 8 2Zm0 10.667A6.004 6.004 0 0 0 13.851 8 6.004 6.004 0 0 0 2.15 8 6.003 6.003 0 0 0 8 12.667ZM8 11a3 3 0 1 1 0-6 3 3 0 0 1 0 6Zm0-1.333a1.667 1.667 0 1 0 0-3.334 1.667 1.667 0 0 0 0 3.334Z" />
    </symbol>
    <symbol id="notification" viewBox="0 0 28 28" fill="none">
        <path stroke="#1D1D1D" stroke-linecap="round" stroke-linejoin="round" stroke-width="2"
            d="M17.5 19.833V21a3.5 3.5 0 1 1-7 0v-1.167m7 0h-7m7 0h4.189c.446 0 .67 0 .851-.06.345-.117.616-.388.732-.733.061-.182.061-.407.061-.856 0-.197 0-.296-.015-.39a1.165 1.165 0 0 0-.203-.49 2.501 2.501 0 0 0-.265-.287l-.454-.455a.782.782 0 0 1-.23-.553v-4.342a8.167 8.167 0 1 0-16.333 0v4.342a.782.782 0 0 1-.229.553l-.454.455c-.14.139-.209.209-.264.286a1.166 1.166 0 0 0-.204.491c-.015.094-.015.193-.015.39 0 .45 0 .674.06.856.117.345.389.616.734.732.18.061.404.061.85.061h4.19" />
    </symbol>
    <symbol id="settings" viewBox="0 0 28 28" fill="none">
        <path stroke="#1D1D1D" stroke-linecap="round" stroke-linejoin="round" stroke-width="2"
            d="m23.742 10.41-.428-.238a2.333 2.333 0 0 1-.914-.845c-.02-.031-.038-.064-.076-.13l-.075-.132a2.335 2.335 0 0 1-.276-1.218l.009-.496c.013-.794.02-1.192-.092-1.55a2.339 2.339 0 0 0-.486-.858c-.25-.28-.597-.48-1.29-.88l-.576-.332c-.692-.398-1.038-.598-1.405-.674a2.332 2.332 0 0 0-.984.009c-.365.082-.707.286-1.39.695l-.004.002-.413.247a2.33 2.33 0 0 1-1.19.37h-.303a2.33 2.33 0 0 1-1.06-.294c-.033-.018-.066-.038-.131-.077l-.416-.25c-.687-.413-1.031-.62-1.399-.702a2.331 2.331 0 0 0-.987-.007c-.368.077-.714.278-1.406.68l-.003.001-.57.33-.006.004c-.685.398-1.03.598-1.277.877-.22.248-.385.54-.484.857-.111.357-.105.756-.092 1.554l.009.496c0 .075.003.112.003.149a2.336 2.336 0 0 1-.352 1.198l-.076.129a2.332 2.332 0 0 1-.787.773c-.031.02-.065.037-.13.074l-.422.234c-.702.388-1.053.583-1.308.86a2.334 2.334 0 0 0-.5.852c-.119.358-.119.76-.117 1.562l.002.656c.002.797.004 1.195.122 1.55.104.315.274.604.498.847.254.276.602.469 1.298.856l.418.233.141.08a2.335 2.335 0 0 1 .863.911l.079.14a2.333 2.333 0 0 1 .267 1.21l-.008.476c-.013.8-.02 1.2.093 1.56.099.317.265.61.486.857.25.28.597.48 1.29.88l.577.332c.692.399 1.037.598 1.404.674.325.067.66.065.984-.008.366-.082.71-.287 1.394-.697l.413-.247a2.33 2.33 0 0 1 1.19-.37l.15-.001h.152a2.334 2.334 0 0 1 1.17.358l.438.264c.688.412 1.031.619 1.398.7.326.074.662.077.988.009.368-.077.715-.278 1.407-.68l.577-.335c.686-.398 1.03-.598 1.279-.877.22-.248.385-.54.483-.857.11-.355.104-.75.091-1.537l-.009-.513a2.335 2.335 0 0 1 .35-1.348c.037-.065.057-.097.076-.128a2.324 2.324 0 0 1 .915-.846l.003-.001.421-.234c.702-.389 1.054-.584 1.31-.86.225-.246.395-.536.5-.853.116-.355.116-.754.114-1.547l-.002-.67c-.002-.797-.003-1.195-.12-1.55a2.334 2.334 0 0 0-.5-.848c-.253-.275-.601-.468-1.296-.855h-.002Z" />
        <path stroke="#1D1D1D" stroke-linecap="round" stroke-linejoin="round" stroke-width="2"
            d="M9.334 14a4.667 4.667 0 1 0 9.333 0 4.667 4.667 0 0 0-9.333 0Z" />
    </symbol>
    <symbol id="home" viewBox="0 0 24 24" fill="none">
        <path stroke="currentColor" stroke-linecap="round" stroke-linejoin="round"
            stroke-width="1.5"
            d="M6.5 7c1.461-1.461 3.094-2.581 4.198-3.26a2.474 2.474 0 0 1 2.604 0c1.105.68 2.738 1.8 4.198 3.26 3.168 3.168 3 5 3 8 0 1.41-.11 2.599-.227 3.463-.124.91-.917 1.537-1.834 1.537H17a2 2 0 0 1-2-2v-2a3 3 0 0 0-6 0v2a2 2 0 0 1-2 2H5.562c-.918 0-1.711-.628-1.834-1.537A25.992 25.992 0 0 1 3.5 15c0-3-.168-4.832 3-8Z" />
    </symbol>
    <symbol id="sprints" viewBox="0 0 24 24" fill="none">
        <path stroke="currentColor" stroke-linecap="round" stroke-linejoin="round"
            stroke-width="1.5"
            d="M12 3.5c-6.5 0-8.5 2-8.5 8.5s2 8.5 8.5 8.5 8.5-2 8.5-8.5-2-8.5-8.5-8.5ZM8 8h8m-8 4h8m-8 4h4" />
    </symbol>
    <symbol id="workers" viewBox="0 0 24 24" fill="none">
        <path stroke="currentColor" stroke-linecap="round" stroke-linejoin="round"
            stroke-width="1.5"
            d="M20.5 21a2.5 2.5 0 0 0 2.5-2.5c0-2.328-1.952-3.301-4-3.709M15 11a4 4 0 0 0 0-8m-.5 18h-11A2.5 2.5 0 0 1 1 18.5c0-4.08 6-4 8-4s8-.08 8 4a2.5 2.5 0 0 1-2.5 2.5ZM9 11a4 4 0 1 0 0-8 4 4 0 0 0 0 8Z" />
    </symbol>
    <symbol id="projects" viewBox="0 0 24 24" fill="none">
        <path stroke="currentColor" stroke-linecap="round" stroke-linejoin="round"
            stroke-width="1.5"
            d="M6.75 3C3.882 3 3 3.882 3 6.75s.882 3.75 3.75 3.75 3.75-.882 3.75-3.75S9.618 3 6.75 3Zm0 10.5c-2.868 0-3.75.882-3.75 3.75S3.882 21 6.75 21s3.75-.882 3.75-3.75-.882-3.75-3.75-3.75Zm10.5 0c-2.868 0-3.75.882-3.75 3.75S14.382 21 17.25 21 21 20.118 21 17.25s-.882-3.75-3.75-3.75Zm0-10.5c-2.868 0-3.75.882-3.75 3.75s.882 3.75 3.75 3.75S21 9.618 21 6.75 20.118 3 17.25 3Z" />
    </symbol>
    <symbol id="plus" viewBox="0 0 16 16" fill="none">
        <path fill="currentColor"
            d="M7.333 7.333V2.667h1.334v4.666h4.667v1.334H8.667v4.667H7.333V8.667H2.667V7.333h4.666Z" />
    </symbol>
    <symbol id="health" viewBox="0 0 14 14" fill="none">
        <path fill="#fff"
            d="M9.625 1.75c1.772 0 3.208 1.458 3.208 3.5 0 4.083-4.375 6.417-5.833 7.292-1.154-.693-4.132-2.297-5.327-4.959h2.74l.545-.907 1.75 2.916 1.206-2.009h2.003V6.417H7.253l-.545.907-1.75-2.916-1.205 2.009H1.29a5.574 5.574 0 0 1-.122-1.167c0-2.042 1.458-3.5 3.208-3.5 1.085 0 2.042.583 2.625 1.167.583-.584 1.54-1.167 2.625-1.167Z" />
    </symbol>
    <symbol id="file" viewBox="0 0 16 16" fill="none">
        <path fill="#202220"
            d="m9.885 5.171-3.77 3.772a.667.667 0 1 0 .942.942l3.772-3.77A2 2 0 0 0 8 3.286L4.229 7.057a3.333 3.333 0 1 0 4.714 4.714L12.714 8l.943.942-3.772 3.771a4.667 4.667 0 0 1-6.6-6.6l3.772-3.77a3.333 3.333 0 0 1 4.714 4.713L8 10.829A2 2 0 1 1 5.171 8l3.772-3.77.942.942Z" />
    </symbol>
    <symbol id="addUser" viewBox="0 0 28 28" fill="none">
        <path stroke="#1D1D1D" stroke-linecap="round" stroke-linejoin="round" stroke-width="2"
            d="M17.5 22.167c0-2.578-3.134-4.667-7-4.667s-7 2.09-7 4.667m18.667-3.5v-3.5m0 0v-3.5m0 3.5h-3.5m3.5 0h3.5M10.5 14a4.667 4.667 0 1 1 0-9.333 4.667 4.667 0 0 1 0 9.333Z" />
    </symbol>
    <symbol id="runner" viewBox="0 0 24 24" fill="none">
        <path fill="#45A3FA"
            d="M9.83 8.79 8 9.456V13H6V8.05h.015l5.268-1.918c.244-.093.51-.14.782-.131a2.616 2.616 0 0 1 2.427 1.82c.186.583.356.977.51 1.182A4.993 4.993 0 0 0 19 11v2a6.987 6.987 0 0 1-5.402-2.547l-.697 3.956L15 16.17V23h-2v-5.898l-2.27-1.904-.727 4.127-6.894-1.215.348-1.97 4.924.868L9.83 8.79ZM13.5 5.5a2 2 0 1 1 0-4 2 2 0 0 1 0 4Z" />
    </symbol>
    <symbol id="trash" viewBox="0 0 16 16" fill="none">
        <path fill="#C0C2C0"
            d="M11.333 2.667h3.334V4h-1.334v10a.667.667 0 0 1-.666.667H3.333A.667.667 0 0 1 2.667 14V4H1.333V2.667h3.334V1.334h6.666v1.333ZM6 6v5.334h1.333V6H6Zm2.667 0v5.334H10V6H8.667Z" />
    </symbol>
    <symbol id="markDone" viewBox="0 0 16 16" fill="none">
        <path fill="#97E78A"
            d="m6.667 10.114 6.128-6.128.943.943-7.071 7.07-4.243-4.242.943-.942 3.3 3.3Z" />
    </symbol>
    <symbol id="arrow_back" viewBox="0 0 16 16" fill="none">
        <path fill="#3890E3"
            d="m3.885 4.667 1.691 1.69-.943.943-3.3-3.3 3.3-3.3.943.943-1.69 1.69h4.78a5.333 5.333 0 1 1 0 10.667h-6v-1.333h6a4 4 0 1 0 0-8h-4.78Z" />
    </symbol>
    <symbol id="search" viewBox="0 0 24 24" fill="none">
        <path stroke="#1D1D1D" stroke-linecap="round" stroke-linejoin="round" stroke-opacity=".5"
            stroke-width="2" d="m15 15 6 6m-11-4a7 7 0 1 1 0-14 7 7 0 0 1 0 14Z" />
    </symbol>
    <symbol id="verify" viewBox="0 0 24 24" file="none">
        <path fill="#8D93A5"
            d="m21.56 10.738-1.36-1.58c-.26-.3-.47-.86-.47-1.26v-1.7c0-1.06-.87-1.93-1.93-1.93h-1.7c-.39 0-.96-.21-1.26-.47l-1.58-1.36c-.69-.59-1.82-.59-2.52 0l-1.57 1.37c-.3.25-.87.46-1.26.46H6.18c-1.06 0-1.93.87-1.93 1.93v1.71c0 .39-.21.95-.46 1.25l-1.35 1.59c-.58.69-.58 1.81 0 2.5l1.35 1.59c.25.3.46.86.46 1.25v1.71c0 1.06.87 1.93 1.93 1.93h1.73c.39 0 .96.21 1.26.47l1.58 1.36c.69.59 1.82.59 2.52 0l1.58-1.36c.3-.26.86-.47 1.26-.47h1.7c1.06 0 1.93-.87 1.93-1.93v-1.7c0-.39.21-.96.47-1.26l1.36-1.58c.58-.69.58-1.83-.01-2.52Zm-5.4-.63-4.83 4.83a.75.75 0 0 1-1.06 0l-2.42-2.42a.754.754 0 0 1 0-1.06c.29-.29.77-.29 1.06 0l1.89 1.89 4.3-4.3c.29-.29.77-.29 1.06 0 .29.29.29.77 0 1.06Z" />
    </symbol>
</svg>