<svg xmlns="http://www.w3.org/2000/svg" xmlns:xlink="http://www.w3.org/1999/xlink">
    <symbol id="logo" viewBox="0 0 208 33" fill="none">
        <path fill="#418AF9"
            d="M47.266 20.084c.106.853.632 1.561 1.576 2.125.944.548 2.292.822 4.044.822 1.386 0 2.558-.152 3.518-.456.975-.305 1.462-.785 1.462-1.44 0-.838-.898-1.447-2.696-1.828l-5.688-1.279c-3.184-.716-4.775-2.147-4.775-4.295 0-1.538.723-2.688 2.17-3.45 1.447-.776 3.275-1.165 5.483-1.165 2.361 0 4.303.442 5.826 1.325 1.523.868 2.376 2.11 2.559 3.724l-3.358.137c-.122-.716-.633-1.317-1.531-1.805-.884-.502-2.095-.754-3.633-.754-1.157 0-2.11.16-2.855.48-.732.305-1.097.739-1.097 1.302 0 .823.86 1.417 2.581 1.782l5.324 1.166c1.797.396 3.122.929 3.975 1.599.853.655 1.28 1.576 1.28 2.764 0 1.615-.762 2.825-2.285 3.633-1.508.792-3.595 1.188-6.26 1.188-5.681 0-8.674-1.828-8.979-5.483l3.359-.092Zm32.117 5.301h-4.501l-5.232-4.707h-2.239v4.707h-3.404V8.57h3.404v9.458h2.308l5.026-4.615h4.204l-6.74 5.666 7.174 6.306Zm1.734-13.571V8.73h3.61v3.084h-3.61Zm.114 13.57v-11.97h3.404v11.97h-3.404ZM96.904 13.14c1.874 0 3.298.479 4.273 1.438.974.96 1.462 2.369 1.462 4.227v6.58h-3.404v-5.53c0-1.294-.282-2.269-.846-2.924-.563-.654-1.47-.982-2.718-.982-1.417 0-2.506.404-3.267 1.211-.762.792-1.143 1.881-1.143 3.267v4.958h-3.404V13.413h3.13v2.879c1.097-2.102 3.07-3.153 5.917-3.153Zm24.084 6.579 3.45.182c-.304 1.828-1.234 3.245-2.787 4.25-1.538 1.005-3.648 1.508-6.328 1.508-3.199 0-5.682-.739-7.448-2.216-1.752-1.493-2.628-3.511-2.628-6.055 0-2.528.861-4.538 2.582-6.03 1.721-1.494 4.135-2.24 7.242-2.24 2.513 0 4.569.495 6.169 1.485 1.614.975 2.589 2.3 2.924 3.975l-3.427.229c-.244-.838-.891-1.508-1.942-2.01-1.036-.519-2.277-.777-3.724-.777-1.995 0-3.541.495-4.638 1.485-1.081.99-1.622 2.284-1.622 3.883 0 1.6.564 2.894 1.691 3.884 1.127.99 2.734 1.485 4.821 1.485 1.568 0 2.84-.282 3.815-.845.99-.579 1.607-1.31 1.85-2.193Zm12.999-6.579c4.691.03 7.036 1.842 7.036 5.436v6.809h-3.153v-2.536c-1.249 1.873-3.335 2.81-6.259 2.81-1.798 0-3.161-.328-4.09-.983-.914-.67-1.371-1.538-1.371-2.604 0-1.188.556-2.064 1.668-2.627 1.127-.58 2.818-.937 5.072-1.074l4.729-.297v-.206c0-.73-.305-1.31-.914-1.736-.594-.442-1.5-.663-2.718-.663-2.102 0-3.351.549-3.747 1.645h-3.199c.122-.96.526-1.744 1.211-2.353.686-.61 1.508-1.036 2.468-1.28.959-.243 2.048-.357 3.267-.342Zm-1.463 10.188c1.539 0 2.772-.281 3.702-.845.929-.579 1.393-1.272 1.393-2.079v-.411l-4.295.297c-1.279.076-2.231.244-2.856.503-.624.243-.936.609-.936 1.096 0 .442.251.792.753 1.051.503.259 1.249.388 2.239.388Zm20.648-10.188c1.873 0 3.297.479 4.272 1.438.975.96 1.462 2.369 1.462 4.227v6.58h-3.404v-5.53c0-1.294-.281-2.269-.845-2.924-.564-.654-1.47-.982-2.719-.982-1.416 0-2.505.404-3.267 1.211-.761.792-1.142 1.881-1.142 3.267v4.958h-3.404V13.413h3.13v2.879c1.096-2.102 3.069-3.153 5.917-3.153Zm23.787 7.927c-.274 1.447-1.097 2.574-2.467 3.38-1.356.808-3.047 1.212-5.072 1.212-2.498 0-4.463-.54-5.895-1.622-1.431-1.082-2.147-2.628-2.147-4.638 0-1.995.708-3.534 2.125-4.615 1.431-1.097 3.366-1.645 5.802-1.645 1.98 0 3.648.396 5.004 1.188 1.371.777 2.185 1.866 2.444 3.267l-3.29.183c-.258-.655-.761-1.158-1.507-1.508-.747-.366-1.63-.548-2.651-.548-1.37 0-2.475.335-3.312 1.005-.823.655-1.234 1.546-1.234 2.673s.419 2.026 1.257 2.696c.853.655 1.987.982 3.404.982 1.066 0 1.972-.19 2.718-.571.747-.396 1.249-.93 1.508-1.6l3.313.16Zm17.701-1.028v.365h-12.519c.426 1.95 2.071 2.924 4.935 2.924 1.934 0 3.274-.449 4.02-1.348l3.313.138c-.442 1.127-1.287 2.002-2.536 2.627-1.249.61-2.848.914-4.797.914-2.59 0-4.638-.518-6.146-1.554-1.493-1.035-2.239-2.604-2.239-4.706 0-2.072.739-3.633 2.216-4.684 1.493-1.05 3.48-1.576 5.963-1.576 5.194 0 7.79 2.3 7.79 6.9Zm-7.79-4.57c-2.711 0-4.28.952-4.706 2.856h9.138c-.076-.883-.503-1.576-1.279-2.079-.762-.518-1.813-.777-3.153-.777Zm18.42-2.329c.685 0 1.309.068 1.873.205v2.97c-1.005-.122-1.774-.183-2.307-.183-1.463 0-2.536.396-3.222 1.188-.685.792-1.028 2.056-1.028 3.792v4.273h-3.404V13.413h3.153v3.062c.457-1.082 1.104-1.904 1.942-2.468.853-.579 1.85-.868 2.993-.868Z" />
        <path stroke="#418AF9" stroke-linecap="round" stroke-width="2"
            d="M12.375 22a6.897 6.897 0 0 0 4.125 1.375A6.897 6.897 0 0 0 20.625 22" />
        <path fill="#418AF9"
            d="M20.625 16.5c.76 0 1.375-.923 1.375-2.063 0-1.139-.616-2.062-1.375-2.062-.76 0-1.375.923-1.375 2.063 0 1.139.616 2.062 1.375 2.062Zm-8.25 0c.76 0 1.375-.923 1.375-2.063 0-1.139-.616-2.062-1.375-2.062-.76 0-1.375.923-1.375 2.063 0 1.139.616 2.062 1.375 2.062Z" />
        <path stroke="#418AF9" stroke-linecap="round" stroke-width="2"
            d="M30.25 19.25c0 5.185 0 7.778-1.611 9.389-1.61 1.611-4.204 1.611-9.389 1.611m-5.5 0c-5.185 0-7.778 0-9.39-1.611-1.61-1.61-1.61-4.204-1.61-9.389m11-16.5c-5.185 0-7.778 0-9.39 1.61-1.61 1.612-1.61 4.205-1.61 9.39m16.5-11c5.185 0 7.778 0 9.389 1.61 1.611 1.612 1.611 4.205 1.611 9.39"
            opacity=".5" />
    </symbol>
    <symbol id="eye" viewBox="0 0 16 16" fill="none">
        <path fill="#E5E5E5"
            d="M8 2a7.336 7.336 0 0 1 7.213 6A7.336 7.336 0 0 1 .787 8 7.336 7.336 0 0 1 8 2Zm0 10.667A6.004 6.004 0 0 0 13.851 8 6.004 6.004 0 0 0 2.15 8 6.003 6.003 0 0 0 8 12.667ZM8 11a3 3 0 1 1 0-6 3 3 0 0 1 0 6Zm0-1.333a1.667 1.667 0 1 0 0-3.334 1.667 1.667 0 0 0 0 3.334Z" />
    </symbol>
    <symbol id="notification" viewBox="0 0 28 28" fill="none">
        <path stroke="#1D1D1D" stroke-linecap="round" stroke-linejoin="round" stroke-width="2"
            d="M17.5 19.833V21a3.5 3.5 0 1 1-7 0v-1.167m7 0h-7m7 0h4.189c.446 0 .67 0 .851-.06.345-.117.616-.388.732-.733.061-.182.061-.407.061-.856 0-.197 0-.296-.015-.39a1.165 1.165 0 0 0-.203-.49 2.501 2.501 0 0 0-.265-.287l-.454-.455a.782.782 0 0 1-.23-.553v-4.342a8.167 8.167 0 1 0-16.333 0v4.342a.782.782 0 0 1-.229.553l-.454.455c-.14.139-.209.209-.264.286a1.166 1.166 0 0 0-.204.491c-.015.094-.015.193-.015.39 0 .45 0 .674.06.856.117.345.389.616.734.732.18.061.404.061.85.061h4.19" />
    </symbol>
    <symbol id="settings" viewBox="0 0 28 28" fill="none">
        <path stroke="#1D1D1D" stroke-linecap="round" stroke-linejoin="round" stroke-width="2"
            d="m23.742 10.41-.428-.238a2.333 2.333 0 0 1-.914-.845c-.02-.031-.038-.064-.076-.13l-.075-.132a2.335 2.335 0 0 1-.276-1.218l.009-.496c.013-.794.02-1.192-.092-1.55a2.339 2.339 0 0 0-.486-.858c-.25-.28-.597-.48-1.29-.88l-.576-.332c-.692-.398-1.038-.598-1.405-.674a2.332 2.332 0 0 0-.984.009c-.365.082-.707.286-1.39.695l-.004.002-.413.247a2.33 2.33 0 0 1-1.19.37h-.303a2.33 2.33 0 0 1-1.06-.294c-.033-.018-.066-.038-.131-.077l-.416-.25c-.687-.413-1.031-.62-1.399-.702a2.331 2.331 0 0 0-.987-.007c-.368.077-.714.278-1.406.68l-.003.001-.57.33-.006.004c-.685.398-1.03.598-1.277.877-.22.248-.385.54-.484.857-.111.357-.105.756-.092 1.554l.009.496c0 .075.003.112.003.149a2.336 2.336 0 0 1-.352 1.198l-.076.129a2.332 2.332 0 0 1-.787.773c-.031.02-.065.037-.13.074l-.422.234c-.702.388-1.053.583-1.308.86a2.334 2.334 0 0 0-.5.852c-.119.358-.119.76-.117 1.562l.002.656c.002.797.004 1.195.122 1.55.104.315.274.604.498.847.254.276.602.469 1.298.856l.418.233.141.08a2.335 2.335 0 0 1 .863.911l.079.14a2.333 2.333 0 0 1 .267 1.21l-.008.476c-.013.8-.02 1.2.093 1.56.099.317.265.61.486.857.25.28.597.48 1.29.88l.577.332c.692.399 1.037.598 1.404.674.325.067.66.065.984-.008.366-.082.71-.287 1.394-.697l.413-.247a2.33 2.33 0 0 1 1.19-.37l.15-.001h.152a2.334 2.334 0 0 1 1.17.358l.438.264c.688.412 1.031.619 1.398.7.326.074.662.077.988.009.368-.077.715-.278 1.407-.68l.577-.335c.686-.398 1.03-.598 1.279-.877.22-.248.385-.54.483-.857.11-.355.104-.75.091-1.537l-.009-.513a2.335 2.335 0 0 1 .35-1.348c.037-.065.057-.097.076-.128a2.324 2.324 0 0 1 .915-.846l.003-.001.421-.234c.702-.389 1.054-.584 1.31-.86.225-.246.395-.536.5-.853.116-.355.116-.754.114-1.547l-.002-.67c-.002-.797-.003-1.195-.12-1.55a2.334 2.334 0 0 0-.5-.848c-.253-.275-.601-.468-1.296-.855h-.002Z" />
        <path stroke="#1D1D1D" stroke-linecap="round" stroke-linejoin="round" stroke-width="2"
            d="M9.334 14a4.667 4.667 0 1 0 9.333 0 4.667 4.667 0 0 0-9.333 0Z" />
    </symbol>
    <symbol id="home" viewBox="0 0 24 24" fill="none">
        <path stroke="currentColor" stroke-linecap="round" stroke-linejoin="round"
            stroke-width="1.5"
            d="M6.5 7c1.461-1.461 3.094-2.581 4.198-3.26a2.474 2.474 0 0 1 2.604 0c1.105.68 2.738 1.8 4.198 3.26 3.168 3.168 3 5 3 8 0 1.41-.11 2.599-.227 3.463-.124.91-.917 1.537-1.834 1.537H17a2 2 0 0 1-2-2v-2a3 3 0 0 0-6 0v2a2 2 0 0 1-2 2H5.562c-.918 0-1.711-.628-1.834-1.537A25.992 25.992 0 0 1 3.5 15c0-3-.168-4.832 3-8Z" />
    </symbol>
    <symbol id="sprints" viewBox="0 0 24 24" fill="none">
        <path stroke="currentColor" stroke-linecap="round" stroke-linejoin="round"
            stroke-width="1.5"
            d="M12 3.5c-6.5 0-8.5 2-8.5 8.5s2 8.5 8.5 8.5 8.5-2 8.5-8.5-2-8.5-8.5-8.5ZM8 8h8m-8 4h8m-8 4h4" />
    </symbol>
    <symbol id="workers" viewBox="0 0 24 24" fill="none">
        <path stroke="currentColor" stroke-linecap="round" stroke-linejoin="round"
            stroke-width="1.5"
            d="M20.5 21a2.5 2.5 0 0 0 2.5-2.5c0-2.328-1.952-3.301-4-3.709M15 11a4 4 0 0 0 0-8m-.5 18h-11A2.5 2.5 0 0 1 1 18.5c0-4.08 6-4 8-4s8-.08 8 4a2.5 2.5 0 0 1-2.5 2.5ZM9 11a4 4 0 1 0 0-8 4 4 0 0 0 0 8Z" />
    </symbol>
    <symbol id="projects" viewBox="0 0 24 24" fill="none">
        <path stroke="currentColor" stroke-linecap="round" stroke-linejoin="round"
            stroke-width="1.5"
            d="M6.75 3C3.882 3 3 3.882 3 6.75s.882 3.75 3.75 3.75 3.75-.882 3.75-3.75S9.618 3 6.75 3Zm0 10.5c-2.868 0-3.75.882-3.75 3.75S3.882 21 6.75 21s3.75-.882 3.75-3.75-.882-3.75-3.75-3.75Zm10.5 0c-2.868 0-3.75.882-3.75 3.75S14.382 21 17.25 21 21 20.118 21 17.25s-.882-3.75-3.75-3.75Zm0-10.5c-2.868 0-3.75.882-3.75 3.75s.882 3.75 3.75 3.75S21 9.618 21 6.75 20.118 3 17.25 3Z" />
    </symbol>
    <symbol id="plus" viewBox="0 0 16 16" fill="none">
        <path fill="currentColor"
            d="M7.333 7.333V2.667h1.334v4.666h4.667v1.334H8.667v4.667H7.333V8.667H2.667V7.333h4.666Z" />
    </symbol>
    <symbol id="health" viewBox="0 0 14 14" fill="none">
        <path fill="#fff"
            d="M9.625 1.75c1.772 0 3.208 1.458 3.208 3.5 0 4.083-4.375 6.417-5.833 7.292-1.154-.693-4.132-2.297-5.327-4.959h2.74l.545-.907 1.75 2.916 1.206-2.009h2.003V6.417H7.253l-.545.907-1.75-2.916-1.205 2.009H1.29a5.574 5.574 0 0 1-.122-1.167c0-2.042 1.458-3.5 3.208-3.5 1.085 0 2.042.583 2.625 1.167.583-.584 1.54-1.167 2.625-1.167Z" />
    </symbol>
    <symbol id="file" viewBox="0 0 16 16" fill="none">
        <path fill="#202220"
            d="m9.885 5.171-3.77 3.772a.667.667 0 1 0 .942.942l3.772-3.77A2 2 0 0 0 8 3.286L4.229 7.057a3.333 3.333 0 1 0 4.714 4.714L12.714 8l.943.942-3.772 3.771a4.667 4.667 0 0 1-6.6-6.6l3.772-3.77a3.333 3.333 0 0 1 4.714 4.713L8 10.829A2 2 0 1 1 5.171 8l3.772-3.77.942.942Z" />
    </symbol>
    <symbol id="addUser" viewBox="0 0 28 28" fill="none">
        <path stroke="#1D1D1D" stroke-linecap="round" stroke-linejoin="round" stroke-width="2"
            d="M17.5 22.167c0-2.578-3.134-4.667-7-4.667s-7 2.09-7 4.667m18.667-3.5v-3.5m0 0v-3.5m0 3.5h-3.5m3.5 0h3.5M10.5 14a4.667 4.667 0 1 1 0-9.333 4.667 4.667 0 0 1 0 9.333Z" />
    </symbol>
    <symbol id="runner" viewBox="0 0 24 24" fill="none">
        <path fill="#45A3FA"
            d="M9.83 8.79 8 9.456V13H6V8.05h.015l5.268-1.918c.244-.093.51-.14.782-.131a2.616 2.616 0 0 1 2.427 1.82c.186.583.356.977.51 1.182A4.993 4.993 0 0 0 19 11v2a6.987 6.987 0 0 1-5.402-2.547l-.697 3.956L15 16.17V23h-2v-5.898l-2.27-1.904-.727 4.127-6.894-1.215.348-1.97 4.924.868L9.83 8.79ZM13.5 5.5a2 2 0 1 1 0-4 2 2 0 0 1 0 4Z" />
    </symbol>
    <symbol id="trash" viewBox="0 0 16 16" fill="none">
        <path fill="#C0C2C0"
            d="M11.333 2.667h3.334V4h-1.334v10a.667.667 0 0 1-.666.667H3.333A.667.667 0 0 1 2.667 14V4H1.333V2.667h3.334V1.334h6.666v1.333ZM6 6v5.334h1.333V6H6Zm2.667 0v5.334H10V6H8.667Z" />
    </symbol>
    <symbol id="arrow_back" viewBox="0 0 16 16" fill="none">
        <path fill="#3890E3"
            d="m3.885 4.667 1.691 1.69-.943.943-3.3-3.3 3.3-3.3.943.943-1.69 1.69h4.78a5.333 5.333 0 1 1 0 10.667h-6v-1.333h6a4 4 0 1 0 0-8h-4.78Z" />
    </symbol>
    <symbol id="search" viewBox="0 0 24 24" fill="none">
        <path stroke="#1D1D1D" stroke-linecap="round" stroke-linejoin="round" stroke-opacity=".5"
            stroke-width="2" d="m15 15 6 6m-11-4a7 7 0 1 1 0-14 7 7 0 0 1 0 14Z" />
    </symbol>
    <symbol id="verify" viewBox="0 0 24 24" file="none">
        <path fill="#8D93A5"
            d="m21.56 10.738-1.36-1.58c-.26-.3-.47-.86-.47-1.26v-1.7c0-1.06-.87-1.93-1.93-1.93h-1.7c-.39 0-.96-.21-1.26-.47l-1.58-1.36c-.69-.59-1.82-.59-2.52 0l-1.57 1.37c-.3.25-.87.46-1.26.46H6.18c-1.06 0-1.93.87-1.93 1.93v1.71c0 .39-.21.95-.46 1.25l-1.35 1.59c-.58.69-.58 1.81 0 2.5l1.35 1.59c.25.3.46.86.46 1.25v1.71c0 1.06.87 1.93 1.93 1.93h1.73c.39 0 .96.21 1.26.47l1.58 1.36c.69.59 1.82.59 2.52 0l1.58-1.36c.3-.26.86-.47 1.26-.47h1.7c1.06 0 1.93-.87 1.93-1.93v-1.7c0-.39.21-.96.47-1.26l1.36-1.58c.58-.69.58-1.83-.01-2.52Zm-5.4-.63-4.83 4.83a.75.75 0 0 1-1.06 0l-2.42-2.42a.754.754 0 0 1 0-1.06c.29-.29.77-.29 1.06 0l1.89 1.89 4.3-4.3c.29-.29.77-.29 1.06 0 .29.29.29.77 0 1.06Z" />
    </symbol>
</svg>