<svg width="165" height="28" viewBox="0 0 165 28" fill="none" xmlns="http://www.w3.org/2000/svg">
<path d="M19.25 3.5C22.7943 3.5 25.6666 6.41667 25.6666 10.5C25.6666 18.6667 16.9166 23.3333 14 25.0833C11.6923 23.6985 5.73531 20.4902 3.34598 15.1667H8.82698L9.91665 13.3513L13.4166 19.1847L15.827 15.1667H19.8333V12.8333H14.5063L13.4166 14.6487L9.91665 8.81533L7.50631 12.8333H2.57831C2.41965 12.0902 2.33331 11.312 2.33331 10.5C2.33331 6.41667 5.24998 3.5 8.74998 3.5C10.92 3.5 12.8333 4.66667 14 5.83333C15.1666 4.66667 17.08 3.5 19.25 3.5Z" fill="#404240"/>
<path d="M39.74 20.34C35.2067 20.34 32.8533 18.6867 32.68 15.38H35.92C35.9733 16.1533 36.3 16.7067 36.9 17.04C37.5 17.3733 38.48 17.54 39.84 17.54C42.08 17.54 43.2 16.9667 43.2 15.82C43.2 15.0067 42.58 14.5267 41.34 14.38L37.3 13.88C35.8467 13.72 34.7867 13.3267 34.12 12.7C33.4533 12.06 33.12 11.1733 33.12 10.04C33.12 8.64 33.6733 7.57333 34.78 6.84C35.9 6.09333 37.5267 5.72 39.66 5.72C43.8067 5.72 46.0067 7.23333 46.26 10.26H43.02C42.9267 9.63333 42.6133 9.18667 42.08 8.92C41.56 8.64 40.7333 8.5 39.6 8.5C37.52 8.5 36.48 8.98667 36.48 9.96C36.48 10.64 37.0467 11.0467 38.18 11.18L42.2 11.68C45.12 12.0533 46.58 13.4067 46.58 15.74C46.58 17.22 45.9933 18.36 44.82 19.16C43.6467 19.9467 41.9533 20.34 39.74 20.34ZM56.6088 9.12C58.5021 9.12 59.8954 9.57333 60.7888 10.48C61.6954 11.3867 62.1488 12.7933 62.1488 14.7C62.1488 16.6333 61.6954 18.06 60.7888 18.98C59.8954 19.8867 58.5021 20.34 56.6088 20.34C54.3554 20.34 52.8354 19.62 52.0488 18.18V24.4H48.6888V9.46H52.0488V11.24C52.8221 9.82667 54.3421 9.12 56.6088 9.12ZM55.5488 17.72C56.7088 17.72 57.5354 17.4867 58.0287 17.02C58.5354 16.5533 58.7888 15.7867 58.7888 14.72C58.7888 13.64 58.5421 12.88 58.0488 12.44C57.5688 11.9867 56.7488 11.76 55.5888 11.76C53.1621 11.76 51.9488 12.62 51.9488 14.34V15C51.9488 15.8533 52.2621 16.52 52.8888 17C53.5154 17.48 54.4021 17.72 55.5488 17.72ZM67.5175 9.46V12.24C68.3975 10.16 69.8442 9.12 71.8575 9.12V12.52C70.3908 12.52 69.3242 12.7933 68.6575 13.34C67.9908 13.8867 67.6108 14.8467 67.5175 16.22V20H64.1575V9.46H67.5175ZM75.3683 7.8C74.6216 7.8 74.1149 7.69333 73.8483 7.48C73.5816 7.25333 73.4483 6.82667 73.4483 6.2C73.4483 5.56 73.5816 5.13333 73.8483 4.92C74.1149 4.69333 74.6216 4.58 75.3683 4.58C76.1549 4.58 76.6816 4.69333 76.9483 4.92C77.2149 5.13333 77.3483 5.56 77.3483 6.2C77.3483 6.82667 77.2083 7.25333 76.9283 7.48C76.6616 7.69333 76.1416 7.8 75.3683 7.8ZM77.0683 20H73.7083V9.46H77.0683V20ZM86.9291 9.12C88.3957 9.12 89.4424 9.45333 90.0691 10.12C90.6957 10.7867 91.0091 11.9 91.0091 13.46V20H87.6491V13.56C87.6491 12.3333 86.8824 11.72 85.3491 11.72C83.7224 11.72 82.8957 12.5733 82.8691 14.28V20H79.5091V9.46H82.8691V11.28C83.2557 10.52 83.7757 9.97333 84.4291 9.64C85.0824 9.29333 85.9157 9.12 86.9291 9.12ZM101.576 9.46V12.1H97.8563V15.78C97.8563 16.4333 97.9963 16.9133 98.2763 17.22C98.5696 17.5133 99.0363 17.66 99.6763 17.66C100.25 17.66 100.883 17.5067 101.576 17.2V19.8C100.95 20.16 100.13 20.34 99.1163 20.34C97.5029 20.34 96.3296 19.98 95.5963 19.26C94.8629 18.5267 94.4963 17.3667 94.4963 15.78V12.1H92.5963V9.46H94.4963V6.82H97.8563V9.46H101.576Z" fill="#404240"/>
<path d="M107.289 20H103.849V6.06H110.249C114.902 6.06 117.229 7.76 117.229 11.16C117.229 14.64 114.902 16.38 110.249 16.38H107.289V20ZM107.289 8.88V13.54H110.269C111.495 13.54 112.389 13.3533 112.949 12.98C113.509 12.5933 113.789 11.9867 113.789 11.16C113.789 10.3733 113.509 9.8 112.949 9.44C112.389 9.06667 111.495 8.88 110.269 8.88H107.289ZM127.178 15.18V9.46H130.538V20H127.178V18.18C126.792 18.94 126.272 19.4933 125.618 19.84C124.965 20.1733 124.132 20.34 123.118 20.34C121.638 20.34 120.592 20.0133 119.978 19.36C119.352 18.6933 119.038 17.5733 119.038 16V9.46H122.398V15.9C122.398 17.1267 123.165 17.74 124.698 17.74C126.325 17.74 127.152 16.8867 127.178 15.18ZM136.365 20H133.005V4.8H136.365V20ZM143.706 20.34C140.239 20.34 138.446 19.1333 138.326 16.72H141.386C141.466 17.56 142.306 17.98 143.906 17.98C145.293 17.98 145.986 17.6267 145.986 16.92C145.986 16.68 145.913 16.5 145.766 16.38C145.633 16.2467 145.393 16.1533 145.046 16.1L141.846 15.5C140.766 15.3 139.973 14.9667 139.466 14.5C138.959 14.0333 138.706 13.4 138.706 12.6C138.706 11.4133 139.133 10.54 139.986 9.98C140.839 9.40667 142.179 9.12 144.006 9.12C147.206 9.12 148.886 10.2733 149.046 12.58H146.006C145.926 12.18 145.726 11.8933 145.406 11.72C145.086 11.5467 144.599 11.46 143.946 11.46C142.653 11.46 142.006 11.7867 142.006 12.44C142.006 12.8 142.333 13.04 142.986 13.16L146.086 13.74C147.193 13.94 148.006 14.2867 148.526 14.78C149.059 15.26 149.326 15.9133 149.326 16.74C149.326 17.9667 148.873 18.8733 147.966 19.46C147.059 20.0467 145.639 20.34 143.706 20.34ZM163.986 14.68V15.5H154.206C154.313 16.38 154.62 17 155.126 17.36C155.633 17.72 156.433 17.9 157.526 17.9C159.406 17.9 160.433 17.4933 160.606 16.68H163.786C163.56 19.12 161.453 20.34 157.466 20.34C155.186 20.34 153.513 19.88 152.446 18.96C151.38 18.04 150.846 16.6 150.846 14.64C150.846 12.7467 151.373 11.3533 152.426 10.46C153.493 9.56667 155.16 9.12 157.426 9.12C159.693 9.12 161.353 9.56 162.406 10.44C163.46 11.3067 163.986 12.72 163.986 14.68ZM157.446 11.56C156.406 11.56 155.64 11.7133 155.146 12.02C154.666 12.3267 154.366 12.8533 154.246 13.6H160.606C160.58 12.88 160.313 12.36 159.806 12.04C159.313 11.72 158.526 11.56 157.446 11.56Z" fill="#45A3FA"/>
</svg>
